<svg width="80" height="70" viewBox="0 0 80 70" xmlns="http://www.w3.org/2000/svg" xmlns:sketch="http://www.bohemiancoding.com/sketch/ns"><title>noun_44163_cc</title><desc>Created with Sketch.</desc><path d="M31.607 1.58c-1.01-.023-1.689.403-2.03.65l-6.012 6.498c-1.586-.475-4.611-1.145-6.502-1.251-.218-.012-.518.19-.832.51-.368.375-1.688 2.199-1.842 3.129-.119.723 2.548 1.835 4.589 2.568-1.805 1.953-2.746 2.689-3.654 5.465-.337 1.034-1.202.834-1.418 1.708l-2.725 10.999c-.121.489-.021.598.414 1.017l.028.027-3.438 12.835c-.195.733.222 1.625.983 1.703l10.248 1.035c.761.076 1.504-.245 1.702-.982l1.847-6.892 2.881.772.031.715c.01.236.075.465.303.527l26.791 7.177c.229.061.398-.104.525-.303l.385-.605 2.877.773-2.275 8.486c-.196.735.245 1.504.983 1.702l9.822 2.633c.739.198 1.504-.245 1.701-.982l3.438-12.834.045-.009c.585-.145.725-.188.865-.676l3.14-10.886c.249-.866-.605-1.145-.377-2.188.587-2.785.385-3.941-.235-6.525 2.111.372 4.815.7 5.065.036.332-.882.102-3.122-.03-3.633-.113-.433-.27-.757-.466-.856-1.651-.835-4.513-1.743-6.145-2.14l-2.072-8.662c-.172-.385-.547-1.093-1.432-1.577l-.236-1.504c-.063-.4-.505-.842-.968-.97l-2.005-.552c-.465-.128-.755.135-.906.468l-.491 1.078c-7.284-2.195-20.435-5.722-27.841-7.462l.114-1.176c.036-.37-.085-.738-.55-.86l-2.013-.525c-.466-.123-1.073.045-1.324.356l-.956 1.181zm-7.204 11.988c-1.572-.193 4.585-7.209 5.303-8.169.455-.609.775-.977 1.643-.853 9.836 2.095 26.865 6.674 36.176 9.694.813.325.907.803.996 1.557.139 1.19 1.965 10.347.507 9.727-16.484-5.335-27.658-8.421-44.625-11.956zm40.549 29.011c1.392.374 2.218 1.805 1.845 3.196-.373 1.394-1.804 2.22-3.196 1.846-1.393-.373-2.219-1.805-1.845-3.196.374-1.393 1.805-2.219 3.196-1.846zm-45.543-12.203c1.392.374 2.218 1.804 1.845 3.197-.374 1.392-1.805 2.217-3.197 1.845-1.391-.374-2.217-1.804-1.845-3.196.373-1.393 1.805-2.219 3.197-1.846zm-1.635-9.338c-.349-.222-.39-.468-.18-.895l1.117-2.263c.211-.427.675-.74 1.206-.566l6.923 2.262c.945.306.797.991.575 1.644-.247.731-.595 2.066-1.001 2.661-.857 1.262-1.691 1.504-3.469.454l-5.172-3.296zm53.264 14.271l-6.128.269c-2.065.022-2.667-.606-2.779-2.126-.054-.718.314-2.048.465-2.806.134-.676.347-1.343 1.318-1.136l7.127 1.503c.548.115.793.619.761 1.093l-.163 2.519c-.031.475-.191.668-.602.685zm5.16 34.188h-76.198c2.246-6.568 4.638-13.116 6.982-19.674l18.369 1.61 9.754 5.775 41.095 9.87v2.419h-.001z" sketch:type="MSShapeGroup" fill="#2A2929"/></svg>