<svg width="27" height="32" viewBox="0 0 27 32" xmlns="http://www.w3.org/2000/svg" xmlns:sketch="http://www.bohemiancoding.com/sketch/ns"><title>noun_508_cc-2</title><desc>Created with Sketch.</desc><path d="M14.074 1.959v-1.959h-1.919v1.959c-2.722.447-4.798 2.753-4.798 5.539h11.515c0-2.786-2.076-5.092-4.798-5.539zm-12.307 11.786h-1.767v1.874h1.767c.395 1.091 1.459 1.874 2.711 1.874v-5.623c-1.253 0-2.316.783-2.711 1.874zm24.462 0h-1.767c-.395-1.091-1.459-1.874-2.711-1.874v5.623c1.253 0 2.316-.783 2.711-1.874h1.767v-1.874zm-13.115-1.25c-1.234 0-2.239.981-2.239 2.187 0 1.205 1.005 2.187 2.239 2.187s2.239-.981 2.239-2.187c0-1.205-1.005-2.187-2.239-2.187zm5.758-.625v-3.124h-11.515v3.124h-1.599v5.623h1.599v13.745h11.515v-13.745h1.599v-5.623h-1.599zm-5.757 6.248c-1.94 0-3.518-1.542-3.518-3.436 0-1.895 1.579-3.436 3.518-3.436 1.94 0 3.518 1.542 3.518 3.436 0 1.895-1.579 3.436-3.518 3.436z" sketch:type="MSShapeGroup"/></svg>