<svg width="116" height="158" viewBox="0 0 116 158" xmlns="http://www.w3.org/2000/svg" xmlns:sketch="http://www.bohemiancoding.com/sketch/ns"><title>noun_2509_cc</title><desc>Created with Sketch.</desc><path d="M2.901 14.584c1.279-.578 14.208-7.272 15.501-7.726 1.293-.454 3.009-.488 3.95 1.072.585.969 3.131 5.885 3.131 5.885s1.623 3.142 1.726 3.347c.15.312.191.747-.094.891-.285.144-20.142 10.267-20.434 10.414-.292.147-.592.003-.802-.398-1.008-1.935-4.007-7.698-4.704-9.038-.838-1.619-.58-3.404 1.726-4.448zm70.415 88.636c0 2.981-2.412 5.398-5.39 5.398h-16.165c-2.976 0-5.39-2.417-5.39-5.398v-21.707c0-2.981 2.412-5.398 5.39-5.398h16.165c2.976 0 5.39 2.416 5.39 5.398v21.707zm26.578-102.654c-10.86.016-38.164.066-44.888 0-6.723-.064-10.538 5.633-13.512 10.101-2.975 4.468-5.56 10.683-5.56 10.683s-1.529.753-3.877 1.915c-.882-.914-3.255-2.117-3.85-1.821-6.22 3.078-14.946 7.344-19.396 9.664-.689.36-1.118 3.256-.891 4.324v.002c-3.233 1.877-5.216 6.312-5.216 9.232v94.413c0 9.411 6.753 17.849 18.326 17.849 11.571 0 71.312.194 77.325.194 9.167 0 17.227-8.351 17.227-17.965v-121.744c.003-7.782-6.526-16.849-15.685-16.849zm-49.607 8.288c1.94-3.302 5.928-4.402 7.866-4.402h29.307s3.62-.26 4.913 1.877c.775 1.036.455 2.719 0 3.95-.238.643-2.715 4.301-5.948 6.992-2.12 1.764-4.268 2.914-9.375 3.82-5.107.906-16.032.582-21.01.582-4.979 0-8.987 1.489-8.987 1.489l-4.719 1.555c0 .002 6.44-13.287 7.952-15.862zm27.761 69.659v27.708c0 1.133-.269 2.2-.735 3.155l24.618 24.652c.911.913.911 2.394 0 3.308-.911.913-2.39.913-3.303 0l-24.616-24.653c-.95.465-2.018.736-3.148.736h-22.276c-1.13 0-2.196-.269-3.148-.736l-24.618 24.653c-.911.913-2.392.913-3.303 0s-.911-2.394 0-3.308l24.616-24.653c-.466-.953-.735-2.021-.735-3.155v-27.706c0-1.133.269-2.2.735-3.153l-24.616-24.653c-.911-.913-.911-2.394 0-3.308.911-.913 2.39-.913 3.303 0l24.616 24.653c.952-.465 2.018-.734 3.148-.734h22.276c1.132 0 2.198.269 3.148.736l24.616-24.653c.911-.913 2.39-.913 3.303 0 .913.913.911 2.394 0 3.308l-24.616 24.652c.466.953.735 2.02.735 3.153z" sketch:type="MSShapeGroup"/></svg>