<svg width="278" height="40" viewBox="0 0 278 40" xmlns="http://www.w3.org/2000/svg" xmlns:sketch="http://www.bohemiancoding.com/sketch/ns"><title>Group</title><desc>Created with Sketch.</desc><defs><linearGradient x1="50%" y1="0%" x2="50%" y2="100%" id="a"><stop stop-color="#F58220" offset="0%"/><stop stop-color="#FFA65A" offset="100%"/></linearGradient></defs><g sketch:type="MSLayerGroup" transform="translate(-219 -1320) translate(219 1320)" fill="none"><path d="M277.192 36.637c0 1.132-.926 2.05-2.068 2.05h-57.905c-1.142 0-2.068-.918-2.068-2.05v-34.363c0-1.132.926-2.05 2.068-2.05h57.905c1.142 0 2.068.918 2.068 2.05v34.363" fill="#F9F9F9" sketch:type="MSShapeGroup"/><path d="M234.4 18.56v-.615l-.297.615h-2.569l-.322-.66v.66h-4.801l-.568-1.332h-.961l-.6 1.332h-2.491v-4.021l1.826-4.096h3.494l.491 1.16v-1.152h4.274l.94 1.954.919-1.963h13.491s.708-.01 1.172.315l-.001-.315h3.398v.444s.611-.444 1.515-.444h5.997l.527 1.178v-1.178h3.843l.697 1.178v-1.178h3.675v8.124h-3.774l-.887-1.416v1.409h-4.691l-.66-1.451h-.919l-.62 1.451h-2.839s-1.059-.013-1.852-.577v.577h-5.653v-1.895c0-.275-.213-.256-.213-.256h-.206v2.152h-11.331m-2.824 1.76h7.427l1.071 1.204 1.097-1.204h5.711s.536.013 1.046.283v-.283h5.084c.645 0 1.188.32 1.188.32v-.32h6.537v.295s.464-.295 1.091-.295h4.259v.295s.536-.295 1.103-.295h3.343v7.656s-.439.494-1.348.494h-4.408v-.243s-.419.243-1.058.243h-11.709v-1.979c0-.195-.087-.23-.261-.23h-.162v2.209h-3.658v-2.195s-.407.216-1.084.216h-1.317v1.979h-4.511l-1.026-1.242-1.097 1.242h-7.318v-8.149" fill="#fff" sketch:type="MSShapeGroup"/><path d="M254.989 21.541h4.661v1.24h-3.234v1.081h3.144v1.092h-3.144v1.137h3.234v1.209h-4.661v-5.76m13.665 2.246c1.752.089 1.898.957 1.898 1.883 0 1.079-.895 1.659-1.827 1.659h-2.995v-1.235h2.334c.395 0 .985 0 .985-.553 0-.263-.103-.43-.525-.474-.186-.027-.88-.065-.985-.067-1.583-.041-1.951-.822-1.951-1.773 0-1.08.765-1.671 1.699-1.671h2.995v1.234h-2.192c-.498.005-1.036-.058-1.036.5 0 .353.265.424.602.457l.999.039m-5.369.001c1.752.089 1.899.957 1.899 1.883 0 1.079-.894 1.659-1.828 1.659h-2.994v-1.235h2.334c.395 0 .985 0 .985-.553 0-.263-.104-.43-.525-.474-.188-.027-.881-.065-.985-.067-1.583-.041-1.95-.822-1.95-1.773 0-1.08.764-1.671 1.698-1.671h2.994v1.234h-2.191c-.5.005-1.037-.058-1.037.5 0 .353.266.424.603.457l.998.039M245.902 24.173h-1.776v-1.383h1.781c.597 0 .785.379.785.662 0 .386-.207.72-.79.72zm-3.215 2.589l-2.048-2.405 2.048-2.25v4.655zm-5.451-.669h-3.286v-1.137h3.143v-1.092h-3.143v-1.081l3.467.008 1.388 1.568-1.569 1.735zm9.145-4.539h-5.003l-1.634 1.787-1.58-1.8h-5.62v5.76h5.438l1.71-1.903 1.672 1.917h2.735v-1.956h1.918c.739 0 2.087-.025 2.087-2.044 0-1.44-1.024-1.761-1.725-1.761zm5.656 2.541h-1.775v-1.305h1.782c.597 0 .784.379.784.662 0 .385-.207.643-.79.643zm1.231.596c.778-.385.985-.9.985-1.595 0-1.234-1.011-1.542-1.711-1.542h-3.706v5.761h1.426v-2.033h1.866c.493 0 .687.489.699.977l.039 1.055h1.387l-.052-1.183c0-.927-.259-1.364-.933-1.441zm-3.861-13.094h1.426v5.767h-1.426v-5.767zm-11.671.007h4.659v1.24h-3.232v1.081h3.142v1.092h-3.142v1.138h3.232v1.209h-4.659v-5.76" fill="#0078A9" sketch:type="MSShapeGroup"/><path d="M246.443 14.144h-1.776v-1.305h1.782c.597 0 .784.379.784.662 0 .386-.207.643-.79.643zm1.232.596c.778-.384.985-.9.985-1.595 0-1.234-1.011-1.542-1.712-1.542h-3.706v5.76h1.426v-2.031h1.866c.494 0 .688.488.7.976l.04 1.055h1.386l-.052-1.183c0-.925-.259-1.363-.933-1.44zm-23.273.095l.85-2.013.886 2.013h-1.736zm10.046-3.231l-1.749 3.864-1.744-3.864h-2.236v5.548l-2.489-5.548h-1.886l-2.541 5.76h1.504l.556-1.286h2.846l.564 1.286h2.871v-4.276l1.905 4.276h1.296l1.951-4.205v4.205h1.426v-5.76h-2.275zm22.34 3.234l.849-2.014.894 2.014h-1.744zm8.757-3.237v3.989l-2.404-3.989h-2.107v5.41l-2.43-5.407h-1.887l-1.964 4.462s-.829 0-.913-.02c-.345-.07-.881-.311-.888-1.326v-.418c0-1.35.739-1.449 1.687-1.449h.88v-1.252h-1.862c-.648 0-2.058.491-2.106 2.857-.033 1.595.668 2.909 2.248 2.909h1.88l.557-1.286h2.845l.564 1.286h2.812v-4.218l2.567 4.218h1.944v-5.766h-1.426z" fill="#0078A9" sketch:type="MSShapeGroup"/><path d="M203.625 39.197h-58.534c-1.154 0-2.09-.936-2.09-2.091v-35.015c0-1.156.936-2.091 2.09-2.091h58.534c1.154 0 2.09.935 2.09 2.091v35.015" fill="#F9F9F9" sketch:type="MSShapeGroup"/><ellipse fill="url(#a)" sketch:type="MSShapeGroup" cx="175.5" cy="20" rx="3" ry="3"/><path d="M160.239 39.197h43.386c1.154 0 2.09-.936 2.09-2.091v-14.676c-4.164 2.64-19.863 11.74-45.476 16.767" fill="#F6821F" sketch:type="MSShapeGroup"/><path d="M158.846 21.426c-.361.327-.827.467-1.567.467h-.308v-3.881h.308c.74 0 1.188.132 1.567.474.396.352.632.898.632 1.46 0 .564-.236 1.129-.632 1.479zm-1.338-4.408h-1.683v5.869h1.674c.888 0 1.53-.211 2.094-.677.668-.556 1.065-1.392 1.065-2.255 0-1.733-1.294-2.938-3.15-2.938zm3.679 0h1.143v5.869h-1.143v-5.869zm3.943 2.251c-.688-.254-.889-.422-.889-.738 0-.369.359-.651.853-.651.343 0 .625.141.924.474l.598-.781c-.493-.433-1.082-.652-1.725-.652-1.037 0-1.83.721-1.83 1.68 0 .811.369 1.224 1.443 1.611.449.158.678.264.792.334.229.151.344.361.344.607 0 .477-.379.828-.89.828-.546 0-.985-.271-1.249-.782l-.739.714c.527.773 1.161 1.117 2.032 1.117 1.188 0 2.024-.793 2.024-1.928 0-.932-.386-1.355-1.689-1.832m2.05.686c0 1.726 1.356 3.063 3.099 3.063.493 0 .915-.097 1.435-.343v-1.346c-.459.458-.864.642-1.382.642-1.153 0-1.972-.836-1.972-2.024 0-1.125.845-2.015 1.919-2.015.544 0 .959.195 1.435.66v-1.346c-.501-.255-.916-.36-1.409-.36-1.734 0-3.125 1.364-3.125 3.07m13.809 1.003l-1.567-3.942h-1.25l2.491 6.02h.616l2.535-6.02h-1.24l-1.585 3.942m3.345 1.927h3.247v-.994h-2.104v-1.585h2.024v-.993h-2.024v-1.303h2.104v-.994h-3.247v5.869" fill="#001722" sketch:type="MSShapeGroup"/><path d="M189.814 19.719h-.334v-1.778h.352c.714 0 1.102.3 1.102.871 0 .589-.388.907-1.12.907zm2.297-.969c0-1.1-.756-1.732-2.077-1.732h-1.698v5.869h1.144v-2.358h.15l1.584 2.358h1.408l-1.849-2.473c.863-.176 1.338-.765 1.338-1.664z" fill="#001722" sketch:type="MSShapeGroup"/><path d="M192.702 17.526h-.023v-.134h.024c.061 0 .091.021.091.066l-.093.068zm.216-.07c0-.102-.069-.16-.195-.16h-.167v.518h.123v-.201l.144.201h.154l-.172-.214c.072-.02.113-.073.113-.145zm-.171.468c-.2 0-.362-.164-.362-.369 0-.207.161-.371.362-.371.195 0 .356.167.356.371 0 .203-.161.369-.356.369zm0-.822c-.25 0-.451.201-.451.452 0 .25.202.451.451.451.245 0 .446-.203.446-.451s-.201-.452-.446-.452z" fill="#231F1F" sketch:type="MSShapeGroup"/><path d="M132.72 36.637c0 1.14-.922 2.064-2.057 2.064h-57.605c-1.136 0-2.057-.923-2.057-2.064v-34.572c0-1.14.922-2.065 2.057-2.065h57.605c1.136 0 2.057.924 2.057 2.065v34.572" fill="#F9F9F9" sketch:type="MSShapeGroup"/><path d="M109.609 30.611l.571-.015.564-.041.553-.071.549-.098.534-.123.527-.15.515-.176.505-.198.493-.225.478-.244.463-.27.452-.288.434-.311.418-.33.403-.349.385-.371.37-.386.347-.405.329-.419.31-.435.288-.453.268-.466.243-.479.224-.494.198-.507.175-.517.151-.528.123-.536.097-.551.071-.555.042-.566.014-.573-.014-.57-.042-.562-.071-.554-.097-.544-.123-.536-.151-.525-.175-.517-.198-.503-.224-.49-.243-.48-.268-.461-.288-.453-.31-.435-.329-.416-.347-.404-.37-.387-.385-.367-.403-.349-.418-.33-.434-.311-.452-.289-.463-.266-.478-.243-.493-.226-.505-.198-.515-.176-.527-.15-.534-.124-.549-.097-.553-.072-.564-.041-.571-.015-.569.015-.564.041-.552.072-.546.097-.534.124-.526.15-.512.176-.505.198-.489.226-.474.243-.463.266-.448.289-.433.311-.419.33-.4.349-.385.367-.366.387-.348.404-.328.416-.306.435-.288.453-.265.461-.247.48-.22.49-.198.503-.171.517-.15.525-.123.536-.097.544-.07.554-.042.562-.015.57.015.573.042.566.07.555.097.551.123.536.15.528.171.517.198.507.22.494.247.479.265.466.288.453.306.435.328.419.348.405.366.386.385.371.4.349.419.33.433.311.448.288.463.27.474.244.489.225.505.198.512.176.526.15.534.123.546.098.552.071.564.041.569.015" fill="#FBB231" sketch:type="MSShapeGroup"/><path d="M94.396 30.611l.567-.015.564-.041.553-.071.545-.098.534-.123.527-.15.512-.176.504-.198.489-.225.475-.244.463-.27.448-.288.434-.311.418-.33.399-.349.385-.371.367-.386.347-.405.328-.419.306-.435.288-.453.265-.466.246-.479.22-.494.198-.507.171-.517.15-.528.124-.536.097-.551.071-.555.041-.566.015-.573-.015-.57-.041-.562-.071-.554-.097-.544-.124-.536-.15-.525-.171-.517-.198-.503-.22-.49-.246-.48-.265-.461-.288-.453-.306-.435-.328-.416-.347-.404-.367-.387-.385-.367-.399-.349-.418-.33-.434-.311-.448-.289-.463-.266-.475-.243-.489-.226-.504-.198-.512-.176-.527-.15-.534-.124-.545-.097-.553-.072-.564-.041-.567-.015-.572.015-.563.041-.553.072-.55.097-.534.124-.527.15-.516.176-.504.198-.493.226-.478.243-.463.266-.452.289-.433.311-.418.33-.403.349-.384.367-.37.387-.347.404-.329.416-.31.435-.287.453-.269.461-.243.48-.224.49-.198.503-.175.517-.15.525-.124.536-.097.544-.071.554-.041.562-.015.57.015.573.041.566.071.555.097.551.124.536.15.528.175.517.198.507.224.494.243.479.269.466.287.453.31.435.329.419.347.405.37.386.384.371.403.349.418.33.433.311.452.288.463.27.478.244.493.225.504.198.516.176.527.15.534.123.55.098.553.071.563.041.572.015" fill="#EC1C2E" sketch:type="MSShapeGroup"/><path d="M100.524 12.452h5.883v-.604h-5.375l-.508.604m-.492 1.481h6.764v-.604h-6.41l-.355.604m-.983 1.481h7.421v-.604h-7.16l-.261.604m-.492.986h7.874v-.603h-7.687l-.186.603m.186 6.913h7.63v-.604h-7.818l.187.604m.586.986h7.067v-.603h-7.347l.28.603m1.08 1.481h6.276v-.603h-6.652l.376.603m1.134 1.485h5.184v-.607h-5.711l.527.607m-2.986-9.383h8.139v-.603h-8.023l-.116.603m4.92 3.95h3.104v-.604h-2.992l-.112.604m0-1.478h2.857v-.607h-2.745l-.112.607m-5.413-.607h.807v.607h-.77l-.038-.607" fill="#FBB231" sketch:type="MSShapeGroup"/><path d="M96.772 19.21l-.052-.004-.052-.007-.049-.007-.048-.007-.045-.007-.048-.008-.048-.007-.053-.008-.052-.007-.06-.004-.067-.004-.07-.004h-.079l-.086.004-.097.008-.108.007-.075.012-.071.011-.064.022-.056.022-.053.026-.048.03-.038.038-.034.034-.022.041-.019.041-.008.044v.045l.011.049.015.048.03.049.037.049.075.071.09.056.104.049.112.041.119.038.123.041.124.045.12.048.112.064.105.078.093.094.079.116.06.142.038.168.014.203-.014.236-.026.176-.045.154-.06.142-.074.123-.086.109-.098.093-.104.082-.115.072-.121.056-.123.048-.127.038-.13.03-.127.023-.123.011-.123.008-.116.003h-.161l-.149-.003h-.131l-.123-.003-.112-.004-.1-.007-.09-.007-.086-.011-.079-.007-.07-.015-.071-.012-.063-.018-.064-.015-.059-.023-.06-.022-.063-.023.168-.828.034.008.04.011.053.014.064.016.067.014.075.015.082.018.089.015.094.015.097.015.1.011.105.011.108.003.11.004h.107l.109-.004.109-.022.086-.03.066-.041.053-.052.037-.053.03-.06.019-.059.014-.056.008-.109-.033-.094-.064-.075-.093-.063-.112-.056-.13-.056-.146-.053-.146-.06-.15-.067-.142-.078-.131-.098-.12-.116-.093-.143-.067-.169-.034-.202.003-.239.019-.147.027-.139.037-.127.044-.12.06-.112.067-.098.079-.094.093-.082.109-.071.119-.06.134-.056.15-.041.169-.035.183-.026.201-.015.221-.004h.137l.127.004.116.004.104.003.093.007.086.007.074.007.067.008.063.007.053.011.048.008.045.007.037.007.033.004.033.007.03.004-.191.846" fill="#fff" sketch:type="MSShapeGroup"/><path d="M96.772 19.21l-.052-.004-.052-.007-.049-.007-.048-.007-.045-.007-.048-.008-.048-.007-.053-.008-.052-.007-.06-.004-.067-.004-.07-.004h-.079l-.086.004-.097.008-.108.007-.075.012-.071.011-.064.022-.056.022-.053.026-.048.03-.038.038-.034.034-.022.041-.019.041-.008.044v.045l.011.049.015.048.03.049.037.049.075.071.09.056.104.049.112.041.119.038.123.041.124.045.12.048.112.064.105.078.093.094.079.116.06.142.038.168.014.203-.014.236-.026.176-.045.154-.06.142-.074.123-.086.109-.098.093-.104.082-.115.072-.121.056-.123.048-.127.038-.13.03-.127.023-.123.011-.123.008-.116.003h-.161l-.149-.003h-.131l-.123-.003-.112-.004-.1-.007-.09-.007-.086-.011-.079-.007-.07-.015-.071-.012-.063-.018-.064-.015-.059-.023-.06-.022-.063-.023.168-.828.034.008.04.011.053.014.064.016.067.014.075.015.082.018.089.015.094.015.097.015.1.011.105.011.108.003.11.004h.107l.109-.004.109-.022.086-.03.066-.041.053-.052.037-.053.03-.06.019-.059.014-.056.008-.109-.033-.094-.064-.075-.093-.063-.112-.056-.13-.056-.146-.053-.146-.06-.15-.067-.142-.078-.131-.098-.12-.116-.093-.143-.067-.169-.034-.202.003-.239.019-.147.027-.139.037-.127.044-.12.06-.112.067-.098.079-.094.093-.082.109-.071.119-.06.134-.056.15-.041.169-.035.183-.026.201-.015.221-.004h.137l.127.004.116.004.104.003.093.007.086.007.074.007.067.008.063.007.053.011.048.008.045.007.037.007.033.004.033.007.03.004-.191.846" stroke="#fff" stroke-width=".216" sketch:type="MSShapeGroup"/><path d="M97.815 17.278h1.035l-.154.907h.624l-.135.847-.658-.019-.358 2.091-.004.075.018.064.038.048.049.041.067.027.074.022.082.015.09.008.082-.003.074-.008.068-.011.06-.015.049-.015.033-.011.023-.008.007-.003-.13.697-.027.019-.026.015-.027.015-.026.015-.027.011-.03.011-.033.011-.034.011-.037.011-.038.008-.044.007-.044.008-.049.007-.057.007-.06.007-.063.007h-.284l-.15-.011-.13-.015-.119-.022-.101-.027-.087-.034-.07-.037-.063-.045-.049-.049-.037-.052-.027-.064-.018-.064-.011-.071-.003-.079v-.082l.023-.18.713-4.088" fill="#fff" sketch:type="MSShapeGroup"/><path d="M97.815 17.278h1.035l-.154.907h.624l-.135.847-.658-.019-.358 2.091-.004.075.018.064.038.048.049.041.067.027.074.022.082.015.09.008.082-.003.074-.008.068-.011.06-.015.049-.015.033-.011.023-.008.007-.003-.13.697-.027.019-.026.015-.027.015-.026.015-.027.011-.03.011-.033.011-.034.011-.037.011-.038.008-.044.007-.044.008-.049.007-.057.007-.06.007-.063.007h-.284l-.15-.011-.13-.015-.119-.022-.101-.027-.087-.034-.07-.037-.063-.045-.049-.049-.037-.052-.027-.064-.018-.064-.011-.071-.003-.079v-.082l.023-.18.713-4.088m2.331 3.166l-.011.064-.003.067.007.072.015.071.026.072.031.068.041.071.044.063.053.064.056.057.06.056.067.044.068.042.074.033.075.026.075.015.097.015.093.011.097.011.097.007.097.004h.101l.097-.004.101-.007.101-.015.101-.019.105-.022.1-.034.105-.041.108-.046.105-.059.108-.064-.15.922-.06.03-.059.031-.06.022-.056.023-.056.018-.061.019-.06.014-.063.012-.067.011-.074.007-.078.007-.086.007-.097.004h-.1l-.117.003h-.124l-.183-.003-.186-.019-.187-.026-.187-.045-.183-.056-.175-.072-.169-.093-.157-.109-.146-.127-.126-.154-.108-.173-.091-.198-.063-.221-.041-.251-.011-.277.019-.307.015-.12.022-.139.03-.145.041-.158.057-.16.067-.162.086-.164.105-.157.119-.15.146-.142.165-.127.187-.113.216-.094.244-.068.268-.044.303-.016.146.004.153.015.154.026.153.038.149.057.146.068.134.09.123.105.112.127.094.151.074.172.053.199.03.224.003.255-.026.285-.057.315-.018.229h-2.723l.171-.739h1.636l.008-.093-.004-.09-.008-.082-.014-.075-.026-.072-.026-.064-.037-.056-.037-.052-.044-.045-.049-.038-.056-.034-.056-.031-.06-.022-.06-.015-.063-.011-.067-.007-.071.004-.067.011-.063.016-.063.022-.064.03-.055.034-.057.041-.048.045-.049.052-.045.056-.04.061-.034.064-.034.067-.026.075-.022.075-.015.078-.149.776" stroke="#fff" stroke-width=".216" sketch:type="MSShapeGroup"/><path d="M108.762 18.579l-.048-.026-.048-.023-.053-.026-.056-.027-.057-.022-.062-.022-.064-.023-.066-.022-.071-.019-.072-.015-.078-.015-.078-.011-.086-.008-.086-.007h-.277l-.097.007-.101.012-.104.019-.105.03-.104.041-.104.052-.105.067-.1.083-.098.097-.093.12-.089.139-.083.164-.078.188-.071.211-.06.239-.023.134-.014.131-.008.131.004.127.01.127.026.12.034.113.041.112.056.102.067.097.079.086.09.079.1.068.116.056.127.049.142.034.049.011.057.011.067.008.074.007.082.008h.179l.094-.008.097-.011.097-.019.093-.026.093-.03.093-.041.086-.048.079-.06.075-.067-.167 1.001-.023.018-.022.023-.03.027-.033.021-.041.03-.053.027-.06.026-.067.022-.086.027-.097.019-.112.015-.131.015-.145.007-.169.004-.189-.004-.21-.011-.172-.019-.172-.038-.172-.056-.172-.076-.164-.089-.157-.113-.149-.131-.138-.15-.124-.169-.104-.187-.09-.21-.066-.229-.045-.251-.015-.266.008-.292.04-.312.031-.153.033-.15.038-.146.038-.139.04-.131.049-.131.049-.124.052-.116.057-.117.056-.109.063-.105.066-.097.068-.094.075-.089.074-.082.079-.079.086-.075.086-.071.09-.064.093-.06.1-.056.101-.048.105-.045.108-.041.116-.038.115-.03.12-.027.127-.022.126-.019.134-.014.135-.007.142-.004.121.004.115.007.112.011.112.015.105.015.101.022.097.019.09.022.086.022.075.023.071.023.059.022.053.019.044.015.034.015.023.008-.187 1.038" fill="#fff" sketch:type="MSShapeGroup"/><path d="M108.762 18.579l-.048-.026-.048-.023-.053-.026-.056-.027-.057-.022-.062-.022-.064-.023-.066-.022-.071-.019-.072-.015-.078-.015-.078-.011-.086-.008-.086-.007h-.277l-.097.007-.101.012-.104.019-.105.03-.104.041-.104.052-.105.067-.1.083-.098.097-.093.12-.089.139-.083.164-.078.188-.071.211-.06.239-.023.134-.014.131-.008.131.004.127.01.127.026.12.034.113.041.112.056.102.067.097.079.086.09.079.1.068.116.056.127.049.142.034.049.011.057.011.067.008.074.007.082.008h.179l.094-.008.097-.011.097-.019.093-.026.093-.03.093-.041.086-.048.079-.06.075-.067-.167 1.001-.023.018-.022.023-.03.027-.033.021-.041.03-.053.027-.06.026-.067.022-.086.027-.097.019-.112.015-.131.015-.145.007-.169.004-.189-.004-.21-.011-.172-.019-.172-.038-.172-.056-.172-.076-.164-.089-.157-.113-.149-.131-.138-.15-.124-.169-.104-.187-.09-.21-.066-.229-.045-.251-.015-.266.008-.292.04-.312.031-.153.033-.15.038-.146.038-.139.04-.131.049-.131.049-.124.052-.116.057-.117.056-.109.063-.105.066-.097.068-.094.075-.089.074-.082.079-.079.086-.075.086-.071.09-.064.093-.06.1-.056.101-.048.105-.045.108-.041.116-.038.115-.03.12-.027.127-.022.126-.019.134-.014.135-.007.142-.004.121.004.115.007.112.011.112.015.105.015.101.022.097.019.09.022.086.022.075.023.071.023.059.022.053.019.044.015.034.015.023.008-.187 1.038" stroke="#fff" stroke-width=".216" sketch:type="MSShapeGroup"/><path d="M118.214 22.18h-1.035l.075-.416v-.038l-.06.076-.064.067-.063.06-.067.053-.067.049-.067.04-.067.034-.071.034-.071.026-.071.019-.071.018-.075.011-.074.012-.071.007-.074.004h-.075l-.194-.015-.18-.041-.164-.064-.15-.086-.134-.109-.12-.127-.105-.139-.09-.157-.074-.169-.06-.175-.041-.184-.03-.192-.011-.191.003-.195.018-.192.034-.191.056-.222.067-.209.079-.191.093-.18.096-.169.113-.15.115-.134.124-.124.13-.109.138-.093.142-.082.142-.064.149-.053.149-.034.149-.022.153-.007.109.003.104.012.097.019.089.026.086.03.075.033.074.042.067.041.06.044.056.049.049.048.045.049.037.049.034.048.03.045.022.045.262-1.473h1.016l-.844 4.901" fill="#fff" sketch:type="MSShapeGroup"/><path d="M118.214 22.18h-1.035l.075-.416v-.038l-.06.076-.064.067-.063.06-.067.053-.067.049-.067.04-.067.034-.071.034-.071.026-.071.019-.071.018-.075.011-.074.012-.071.007-.074.004h-.075l-.194-.015-.18-.041-.164-.064-.15-.086-.134-.109-.12-.127-.105-.139-.09-.157-.074-.169-.06-.175-.041-.184-.03-.192-.011-.191.003-.195.018-.192.034-.191.056-.222.067-.209.079-.191.093-.18.096-.169.113-.15.115-.134.124-.124.13-.109.138-.093.142-.082.142-.064.149-.053.149-.034.149-.022.153-.007.109.003.104.012.097.019.089.026.086.03.075.033.074.042.067.041.06.044.056.049.049.048.045.049.037.049.034.048.03.045.022.045.262-1.473h1.016l-.844 4.901" stroke="#fff" stroke-width=".216" sketch:type="MSShapeGroup"/><path d="M116.304 21.457l.105-.007.097-.022.09-.026.086-.041.078-.044.075-.057.071-.063.063-.069.056-.075.053-.082.048-.086.042-.089.037-.094.03-.097.026-.101.019-.101.018-.105.012-.109v-.102l-.003-.104-.011-.098-.015-.094-.026-.09-.03-.086-.037-.074-.045-.072-.048-.061-.056-.052-.063-.045-.067-.03-.071-.019-.078-.008-.101.008-.093.015-.086.03-.086.038-.074.049-.075.06-.063.064-.064.072-.056.081-.053.087-.049.09-.04.097-.037.101-.03.102-.03.108-.022.109-.019.165.008.18.026.183.05.176.074.154.097.123.123.083.149.03" fill="#FBB231" sketch:type="MSShapeGroup"/><path d="M93.594 21.496l-.15.832h-.941l.026-.154.02-.139.014-.105.015-.057-.052.06-.06.06-.07.056-.079.052-.089.053-.093.044-.097.045-.101.038-.109.034-.107.027-.109.022-.111.015-.109.008-.108.003-.105-.011-.101-.015-.131-.034-.119-.038-.105-.048-.093-.056-.082-.06-.074-.068-.061-.072-.052-.075-.044-.078-.038-.083-.03-.082-.023-.082-.015-.086-.011-.086-.007-.082v-.082l.011-.146.023-.139.037-.131.049-.128.06-.119.067-.109.079-.105.09-.094.094-.086.104-.079.108-.071.112-.06.12-.051.124-.042.127-.034.131-.023h.007l.019-.004.027-.003.041-.004.045-.007.052-.004.056-.007.063-.007.063-.007.064-.008.067-.004.06-.007.06-.003.055-.004.053-.003h.127l.09.003.082.004h.082l.067.003.053.003.037.004h.011l.007-.026.023-.067.018-.079.007-.071-.015-.082-.033-.076-.045-.067-.06-.056-.071-.048-.078-.034-.09-.023-.096-.007-.105-.004-.113-.003h-.116l-.119.003-.123.008-.12.011-.119.011-.116.015-.113.014-.108.019-.097.019-.09.019-.082.023-.067.022-.052.027-.041.022.265-.903.083-.034.082-.03.09-.026.09-.019.09-.019.097-.014.097-.015.101-.008.104-.007.108-.004.112-.004h.358l.131.004.131.004.104.007.112.019.116.026.119.034.116.045.112.052.112.064.105.071.092.083.083.089.075.101.055.113.038.12.022.127v.142l-.022.15-.377 1.979" fill="#fff" sketch:type="MSShapeGroup"/><path d="M93.594 21.496l-.15.832h-.941l.026-.154.02-.139.014-.105.015-.057-.052.06-.06.06-.07.056-.079.052-.089.053-.093.044-.097.045-.101.038-.109.034-.107.027-.109.022-.111.015-.109.008-.108.003-.105-.011-.101-.015-.131-.034-.119-.038-.105-.048-.093-.056-.082-.06-.074-.068-.061-.072-.052-.075-.044-.078-.038-.083-.03-.082-.023-.082-.015-.086-.011-.086-.007-.082v-.082l.011-.146.023-.139.037-.131.049-.128.06-.119.067-.109.079-.105.09-.094.094-.086.104-.079.108-.071.112-.06.12-.051.124-.042.127-.034.131-.023h.007l.019-.004.027-.003.041-.004.045-.007.052-.004.056-.007.063-.007.063-.007.064-.008.067-.004.06-.007.06-.003.055-.004.053-.003h.127l.09.003.082.004h.082l.067.003.053.003.037.004h.011l.007-.026.023-.067.018-.079.007-.071-.015-.082-.033-.076-.045-.067-.06-.056-.071-.048-.078-.034-.09-.023-.096-.007-.105-.004-.113-.003h-.116l-.119.003-.123.008-.12.011-.119.011-.116.015-.113.014-.108.019-.097.019-.09.019-.082.023-.067.022-.052.027-.041.022.265-.903.083-.034.082-.03.09-.026.09-.019.09-.019.097-.014.097-.015.101-.008.104-.007.108-.004.112-.004h.358l.131.004.131.004.104.007.112.019.116.026.119.034.116.045.112.052.112.064.105.071.092.083.083.089.075.101.055.113.038.12.022.127v.142l-.022.15-.377 1.979" stroke="#fff" stroke-width=".216" sketch:type="MSShapeGroup"/><path d="M92.515 20.308l-.004-.018-.015-.019-.022-.011-.037-.007-.041-.007-.048-.004h-.113l-.059.004-.063.007-.06.007-.06.008-.056.007-.053.011-.044.011-.041.011-.026.007-.03.012-.041.015-.042.019-.048.023-.049.026-.052.026-.049.03-.052.037-.049.038-.045.045-.04.045-.038.048-.026.053-.022.06-.012.06-.003.128.018.101.037.076.049.056.056.038.063.022.06.011.06.004.112-.004.101-.011.097-.015.086-.022.074-.026.071-.033.063-.034.057-.041.049-.038.044-.045.038-.041.03-.045.026-.045.024-.045.018-.041.01-.041.031-.108.026-.124.022-.12.019-.098" fill="#EC1C2E" sketch:type="MSShapeGroup"/><path d="M85.793 22.198h-1.016l.848-4.92h1.766l.169 2.919 1.221-2.919h1.845l-.867 4.92h-1.016l.642-3.676h-.04l-1.521 3.676h-1.146l-.008-.154-.026-.409-.033-.581-.038-.667-.037-.67-.033-.588-.026-.427-.008-.18h-.056l-.62 3.676" fill="#fff" sketch:type="MSShapeGroup"/><path d="M85.793 22.198h-1.016l.848-4.92h1.766l.169 2.919 1.221-2.919h1.845l-.867 4.92h-1.016l.642-3.676h-.04l-1.521 3.676h-1.146l-.008-.154-.026-.409-.033-.581-.038-.667-.037-.67-.033-.588-.026-.427-.008-.18h-.056l-.62 3.676" stroke="#fff" stroke-width=".216" sketch:type="MSShapeGroup"/><path d="M111.782 21.496l-.154.832h-.937l.007-.154.004-.135v-.101l.007-.045-.048.056-.057.056-.066.052-.075.053-.078.048-.09.045-.093.045-.093.038-.101.03-.105.03-.104.019-.105.015-.109.008-.104.003-.101-.011-.101-.015-.134-.034-.119-.038-.105-.048-.097-.056-.082-.06-.071-.068-.06-.072-.052-.075-.045-.078-.033-.083-.03-.082-.019-.082-.016-.086-.01-.086-.008-.082v-.082l.008-.146.023-.139.033-.131.049-.128.056-.119.071-.109.079-.105.086-.094.097-.086.101-.079.108-.071.116-.06.116-.051.123-.042.123-.034.127-.023h.008l.018-.004.027-.003.037-.004.049-.007.052-.004.057-.007.059-.007.064-.007.067-.008.063-.004.063-.007.06-.003.052-.004.053-.003h.131l.09.003.086.004h.082l.071.003.06.003.033.004h.015l.008-.026.011-.067.011-.079.007-.071-.014-.082-.03-.076-.049-.067-.057-.056-.067-.048-.078-.034-.082-.023-.09-.007-.105-.004-.111-.003h-.116l-.12.003-.123.008-.12.011-.12.011-.116.015-.112.014-.108.019-.097.019-.09.019-.082.023-.067.022-.053.027-.04.022.261-.903.082-.034.087-.03.086-.026.089-.019.093-.019.094-.014.096-.015.102-.008.104-.007.109-.004.108-.004h.351l.127.004.127.004.105.007.112.019.116.026.12.034.116.045.115.052.112.064.105.071.094.083.085.089.074.101.057.113.041.12.027.127v.142l-.019.15-.392 1.979m.079.592l.022-.022.153-.832-.045-.007-.153.832.023-.023v.052l.018-.004.004-.018-.022.022m-1.003.151l.023.026h.937v-.052h-.937l.023.026h-.045l-.003.026h.026l-.023-.026m.055-.49l-.034-.03-.015.06-.004.101v.135l-.007.154h.045l.007-.154.008-.135-.004-.101v-.031l-.033-.03.037.03m-1.536.481l.104.015.101.011.104-.003.109-.008.108-.015.104-.019.105-.029.104-.031.093-.038.097-.044.091-.045.077-.053.079-.053.067-.052.061-.061.049-.056-.037-.03-.049.056-.052.052-.068.053-.07.052-.079.045-.089.045-.09.045-.093.037-.097.03-.105.031-.105.019-.1.014-.109.008-.104.003-.101-.011-.097-.014-.007.045m-.985-1.002l.003.082.007.082.012.09.015.086.019.082.03.086.033.086.049.079.052.078.061.071.074.071.086.06.097.06.109.048.123.038.135.034.007-.045-.135-.034-.115-.038-.101-.048-.097-.053-.078-.059-.067-.065-.06-.071-.053-.071-.04-.078-.033-.079-.031-.078-.018-.083-.015-.086-.011-.082-.008-.082.004-.082h-.052m1.338-1.48l-.13.023-.127.034-.124.041-.119.052-.117.06-.111.076-.101.079-.097.089-.09.094-.079.105-.075.113-.056.124-.048.127-.034.135-.023.142-.011.146h.052l.004-.146.022-.135.033-.127.049-.127.056-.117.067-.105.079-.105.082-.093.097-.082.101-.079.104-.067.117-.06.111-.052.124-.041.12-.034.123-.022v-.045m.907-.003h-.041l-.053.008-.052.004-.06.003-.063.007-.063.004-.067.007-.064.007-.059.008-.057.008-.052.003-.049.008-.037.003-.03.004-.015.003h-.008v.045h.008l.022-.004.023-.003.037-.004.049-.007.052-.004.057-.007.059-.008.064-.007.067-.007.063-.003.063-.008.06-.003.052-.004h.093v-.052m.72.04l.023-.019h-.015l-.033-.003-.06-.003-.071-.007h-.168l-.09-.008h-.09v.052h.18l.086.007h.154l.06.004.033.004h.015l.023-.019-.023.019.019.003.004-.022-.045-.008m.023-.535h-.003l-.003.071-.012.076-.011.068-.007.026.045.008.007-.027.011-.068.011-.082.011-.071h-.048m-.531-.446v.004l.087.004.078.023.074.033.063.045.052.052.045.064.031.067.015.079h.045l-.015-.086-.03-.083-.052-.071-.06-.061-.071-.052-.082-.034-.086-.022-.093-.011v.048m-1.477.189l.037.022.037-.019.048-.026.064-.023.081-.022.091-.019.096-.019.108-.019.108-.014.116-.016.12-.011.12-.011.123-.007h.347l.105.003v-.045l-.105-.003-.111-.008h-.116l-.12.008-.123.007-.12.012-.12.011-.116.015-.116.014-.109.02-.096.019-.09.019-.082.022-.07.023-.056.026-.045.026.037.023-.045-.007m.279-.731l-.016.019-.261.903.045.007.261-.903-.015.019-.014-.045-.012.004-.004.015.016-.019m1.385.012l-.127-.007-.127-.004h-.351l-.108.008-.109.004-.104.008-.102.006-.1.015-.093.015-.093.019-.09.019-.089.026-.086.03-.082.034.014.045.083-.034.085-.03.082-.027.09-.018.094-.019.093-.015.093-.015.102-.007.104-.008.109-.003h.46l.127.003h.127v-.044m1.586 1.257l.018-.154v-.142l-.026-.132-.041-.123-.06-.116-.076-.105-.089-.093-.093-.083-.109-.072-.112-.067-.119-.052-.116-.045-.123-.033-.117-.026-.115-.018-.105-.008v.044l.105.008.108.019.116.026.115.034.117.045.112.053.112.06.101.071.093.082.082.087.074.097.052.11.041.116.027.123v.142l-.019.147.045.007m-.743 1.701l.393-1.978-.045-.007-.392 1.978.045.007" fill="#fff" sketch:type="MSShapeGroup"/><path d="M111.191 20.312l-.007-.022-.014-.018-.027-.012-.037-.011-.041-.004-.049-.004h-.056l-.056.004-.06.007-.06.007-.06.008-.057.007-.055.011-.049.007-.049.011-.037.007-.026.004-.031.011-.037.011-.042.015-.049.022-.044.023-.052.026-.049.033-.049.034-.049.041-.041.041-.041.049-.034.052-.026.056-.022.06-.011.064-.004.128.018.101.031.076.045.056.056.038.063.022.063.011.063.004.112-.004.104-.011.097-.019.087-.026.081-.03.071-.034.067-.038.06-.045.053-.041.044-.048.041-.045.034-.049.026-.045.02-.045.015-.045.011-.041.015-.105.019-.109.014-.105.007-.094" fill="#FBB231" sketch:type="MSShapeGroup"/><path d="M118.73 21.734l.008-.087.029-.101.053-.09.063-.078.079-.063.091-.045.097-.031.104-.011.105.011.096.031.09.045.079.063.063.078.052.09.03.101.008.087h-.112l-.003-.068-.023-.082-.037-.075-.048-.064-.06-.052-.071-.037-.082-.027-.087-.007-.086.007-.082.027-.071.037-.06.052-.048.064-.037.075-.023.082-.008.068h-.109m.492-.281v-.225h.205l.045.003.041.007.03.011.026.015.019.023.015.023.007.026.004.027-.004.034-.007.026-.011.023-.008.008h-.157l.015-.004.027-.003.022-.007.019-.007.015-.011.008-.012.007-.018v-.027l-.004-.019-.007-.015-.011-.007-.011-.008-.019-.003-.018-.003h-.153v.146h-.093m-.491.266l-.003.022.011.109.029.101.053.09.063.075.079.063.091.049.097.03.104.011.105-.011.096-.03.09-.049.079-.063.063-.075.052-.09.03-.101.011-.109-.003-.022h-.112l.004.022-.007.09-.023.082-.037.072-.048.063-.06.053-.071.04-.082.027-.087.007-.086-.007-.082-.027-.071-.04-.06-.053-.048-.063-.037-.072-.023-.082-.008-.09v-.022h-.109m.489 0v.229h.093v-.188h.093l.112.188h.076l-.112-.188h.026l.026-.008.023-.007.019-.015.007-.011h-.157l-.019.003h-.093v-.003h-.093" fill="#fff" sketch:type="MSShapeGroup"/><path d="M119.256 22.191l.087-.007.082-.027.071-.04.06-.053.048-.063.037-.072.023-.082.007-.09-.007-.09-.023-.082-.037-.075-.048-.064-.06-.052-.071-.037-.082-.027-.087-.007-.086.007-.082.027-.071.037-.06.052-.048.064-.037.075-.023.082-.008.09.008.09.023.082.037.072.048.063.06.053.071.04.082.027.086.007m0-.453l.033-.008.027-.003.022-.007.019-.007.015-.011.008-.012.007-.018v-.027l-.004-.019-.007-.015-.011-.007-.011-.008-.019-.003-.018-.003h-.153v.15h.093m-.093.225h-.093v-.454h.205l.045.003.041.007.03.011.026.015.019.023.015.023.007.026.004.027-.004.034-.007.026-.011.023-.015.019-.019.015-.023.007-.026.008h-.026l.112.188h-.076l-.112-.188h-.093v.188m-.433-.206l.011-.109.029-.101.053-.09.063-.078.079-.063.091-.045.097-.031.104-.011.105.011.096.031.09.045.079.063.063.078.052.09.03.101.011.109-.011.109-.03.101-.052.09-.063.075-.079.063-.09.049-.096.03-.105.011-.104-.011-.097-.03-.091-.049-.079-.063-.063-.075-.053-.09-.029-.101-.011-.109" stroke="#fff" stroke-width=".216" sketch:type="MSShapeGroup"/><path d="M112.333 22.32h1.054l.377-2.132.015-.082.023-.083.022-.082.03-.082.037-.082.045-.079.049-.075.06-.072.067-.063.074-.06.086-.057.097-.045.108-.037.12-.03.131-.023.145-.008h.093l.168-.963-.105.007-.1.012-.093.019-.09.026-.082.03-.079.038-.075.041-.071.045-.067.053-.064.052-.06.06-.06.059-.056.064-.056.071-.056.068-.052.075.112-.678h-1.05l-.698 4.013" fill="#fff" sketch:type="MSShapeGroup"/><path d="M112.333 22.32h1.054l.377-2.132.015-.082.023-.083.022-.082.03-.082.037-.082.045-.079.049-.075.06-.072.067-.063.074-.06.086-.057.097-.045.108-.037.12-.03.131-.023.145-.008h.093l.168-.963-.105.007-.1.012-.093.019-.09.026-.082.03-.079.038-.075.041-.071.045-.067.053-.064.052-.06.06-.06.059-.056.064-.056.071-.056.068-.052.075.112-.678h-1.05l-.698 4.013" stroke="#fff" stroke-width=".216" sketch:type="MSShapeGroup"/><path d="M102.492 22.32h1.072l.359-2.132.015-.082.018-.079.019-.078.027-.076.03-.075.037-.071.045-.067.052-.064.06-.057.067-.055.083-.045.09-.041.104-.034.116-.029.127-.019.145-.011h.012l.015.004.019.004h.019l.018.003.016.004.01.003h.004l.003-.015.011-.045.015-.067.019-.083.026-.097.027-.105.033-.105.033-.106.031-.071.037-.072.037-.071.037-.064.033-.056.026-.045.019-.026.007-.011h-.003l-.015-.004-.018-.004-.027-.004h-.026l-.03-.003-.027-.004h-.026l-.116.007-.104.012-.097.019-.09.023-.086.03-.079.038-.071.037-.067.045-.063.049-.06.056-.056.056-.056.063-.057.065-.052.072-.056.074-.057.075.134-.678h-1.072l-.698 4.013" fill="#fff" sketch:type="MSShapeGroup"/><path d="M102.492 22.32h1.072l.359-2.132.015-.082.018-.079.019-.078.027-.076.03-.075.037-.071.045-.067.052-.064.06-.057.067-.055.083-.045.09-.041.104-.034.116-.029.127-.019.145-.011h.012l.015.004.019.004h.019l.018.003.016.004.01.003h.004l.003-.015.011-.045.015-.067.019-.083.026-.097.027-.105.033-.105.033-.106.031-.071.037-.072.037-.071.037-.064.033-.056.026-.045.019-.026.007-.011h-.003l-.015-.004-.018-.004-.027-.004h-.026l-.03-.003-.027-.004h-.026l-.116.007-.104.012-.097.019-.09.023-.086.03-.079.038-.071.037-.067.045-.063.049-.06.056-.056.056-.056.063-.057.065-.052.072-.056.074-.057.075.134-.678h-1.072l-.698 4.013" stroke="#fff" stroke-width=".216" sketch:type="MSShapeGroup"/><path fill="#FBB231" sketch:type="MSShapeGroup" d="M118.73 26.087v-.015l.029-.097.053-.086.063-.075.079-.06.091-.045.097-.026.104-.011.105.011.096.026.09.045.079.06.063.075.052.086.03.097v.015h-.108l-.023-.078-.037-.072-.048-.064-.06-.052-.071-.041-.082-.026-.087-.007-.086.007-.082.026-.071.041-.06.052-.048.064-.037.072-.023.078h-.108m.492.208v-.131h.25l.041.007.03.006.026.015.019.019.015.022.007.026.004.034h-.075v-.019l-.004-.019-.007-.015-.011-.007-.011-.007-.019-.004-.018-.003h-.153v.075h-.093m-.493-.047l.011-.082h.108v.003l-.008.079h-.112m.493 0v-.082h.093v.075h.093l.033-.007.027-.004.022-.008.019-.007.015-.011.008-.012.007-.018v-.008h.075l-.004.026-.007.023-.011.019-.015.014h-.355m.5 0l-.007-.079v-.003h.108l.011.082h-.111m-.993-.082v.011l.011.109.029.101.053.09.063.079.079.064.091.044.097.031.104.011.105-.011.096-.031.09-.044.079-.064.063-.079.052-.09.03-.101.011-.109v-.011h-.111v.011l-.007.09-.023.082-.037.071-.048.063-.06.054-.071.041-.082.026-.087.007-.086-.007-.082-.026-.071-.041-.06-.054-.048-.063-.037-.071-.023-.082-.008-.09v-.011h-.112m.492 0v.218h.093v-.188h.093l.112.188h.076l-.112-.188h.026l.026-.007.023-.007.019-.015h-.355"/><path d="M101.643 19.885h-1.364l.001-.003h-.002l.009-.052.015-.078.022-.075.026-.075.034-.067.034-.064.04-.061.045-.056.049-.052.048-.045.057-.041.055-.034.064-.03.063-.022.063-.016.067-.011.071-.004.067.007.063.011.06.015.06.022.056.031.056.034.049.038.044.045.037.052.037.056.026.064.026.072.014.075.008.082.004.09-.008.093zm1.013-.345l-.03-.224-.053-.199-.074-.172-.094-.151-.112-.127-.123-.105-.134-.09-.146-.068-.149-.057-.153-.038-.154-.026-.153-.015-.146-.004-.303.016-.268.044-.244.068-.216.094-.187.113-.165.127-.146.142-.119.15-.105.157-.086.164-.067.162-.057.16-.041.158-.03.145-.022.139-.015.12-.019.307.011.277.041.251.063.221.091.198.108.173.126.154.146.127.157.109.169.093.175.072.183.056.187.045.187.026.186.019.183.003h.124l.117-.003h.1l.097-.004.086-.007.078-.007.074-.007.067-.011.063-.012.06-.014.061-.019.056-.018.056-.023.06-.022.059-.031.06-.03.15-.922-.108.064-.105.059-.108.046-.105.041-.1.034-.105.022-.101.019-.101.015-.101.007-.097.004h-.101l-.097-.004-.097-.007-.097-.011-.093-.011-.097-.015-.075-.015-.075-.026-.074-.033-.068-.042-.067-.044-.06-.056-.056-.057-.053-.064-.044-.063-.041-.071-.031-.068-.026-.072-.015-.071-.007-.072.003-.063.009-.048h2.423l.018-.229.057-.315.026-.285-.003-.255z" fill="#fff" sketch:type="MSShapeGroup"/><path d="M61.294 36.924c0 1.147-.914 2.076-2.043 2.076h-57.208c-1.128 0-2.043-.929-2.043-2.076v-34.783c0-1.147.915-2.077 2.043-2.077h57.208c1.128 0 2.043.93 2.043 2.077v34.783" fill="#F9F9F9" sketch:type="MSShapeGroup"/><path d="M27.916 24.682h-2.994l1.871-11.549h2.995l-1.872 11.549m-5.305-11.549l-2.854 7.943-.338-1.711-1.007-5.193s-.121-1.04-1.42-1.04h-4.719l-.055.196s1.443.301 3.132 1.32l2.601 10.033h3.12l4.764-11.549h-3.223M42.724 20.597l1.573-4.323.885 4.323h-2.458zm3.295 4.085h2.749l-2.397-11.549h-2.407c-1.112 0-1.382.86-1.382.86l-4.465 10.689h3.121l.625-1.715h3.806l.351 1.715zm-7.685-9.056l.427-2.48s-1.319-.503-2.693-.503c-1.487 0-5.015.652-5.015 3.823 0 2.984 4.141 3.021 4.141 4.587 0 1.567-3.715 1.287-4.941.299l-.445 2.592s1.337.653 3.38.653 5.126-1.063 5.126-3.954c0-3.003-4.179-3.283-4.179-4.588 0-1.306 2.916-1.138 4.197-.429" fill="#0066B2" sketch:type="MSShapeGroup"/></g></svg>