<svg width="42" height="67" viewBox="0 0 42 67" xmlns="http://www.w3.org/2000/svg" xmlns:sketch="http://www.bohemiancoding.com/sketch/ns"><title>noun_3755_cc copy</title><desc>Created with Sketch.</desc><g sketch:type="MSLayerGroup" fill="none"><path d="M38.045.582h-9.155c-.75 0-1.436.246-2.006.647-14.587.417-26.327 12.404-26.327 27.089v38.181h3.59v-38.181c0-12.235 9.393-22.314 21.346-23.414.305 1.262 1.292 2.258 2.552 2.57.393 1.87 2.135 3.279 4.224 3.279h2.154c2.07 0 3.798-1.383 4.213-3.226 1.649-.283 2.906-1.716 2.906-3.447.001-1.932-1.567-3.499-3.499-3.499zm-.745 5.82c0 1.654-1.415 2.995-3.161 2.995h-1.581c-1.746 0-3.162-1.341-3.162-2.995v-.764h7.904v.764h.001z" fill="#2A2929" sketch:type="MSShapeGroup"/><path d="M34.68 17.529c0 .644-.523 1.167-1.167 1.167-.645 0-1.167-.523-1.167-1.167v-2.567c0-.645.522-1.167 1.167-1.167.644 0 1.167.523 1.167 1.167v2.567zm-7.12-.945c-.37.527-1.098.656-1.625.287-.528-.37-.657-1.098-.286-1.625l1.473-2.103c.369-.528 1.097-.656 1.625-.287.528.37.657 1.098.286 1.625l-1.472 2.103zm13.569-1.339c.37.528.242 1.256-.286 1.625-.529.37-1.256.241-1.625-.287l-1.473-2.102c-.369-.528-.241-1.256.287-1.625.529-.37 1.255-.242 1.625.286l1.472 2.103z" fill="#000" sketch:type="MSShapeGroup"/></g></svg>