<?xml version="1.0" encoding="UTF-8" standalone="no"?>
<svg width="161px" height="165px" viewBox="0 0 161 165" version="1.1" xmlns="http://www.w3.org/2000/svg" xmlns:xlink="http://www.w3.org/1999/xlink" xmlns:sketch="http://www.bohemiancoding.com/sketch/ns">
    <!-- Generator: Sketch 3.3.3 (12081) - http://www.bohemiancoding.com/sketch -->
    <title>Group</title>
    <desc>Created with Sketch.</desc>
    <defs></defs>
    <g id="Home-Page" stroke="none" stroke-width="1" fill="none" fill-rule="evenodd" sketch:type="MSPage">
        <g id="Desktop-HD" sketch:type="MSArtboardGroup" transform="translate(-253.000000, 0.000000)">
            <g id="Group" sketch:type="MSLayerGroup" transform="translate(253.000000, -4.000000)">
                <polygon id="Polygon-1" fill="#FFCB3C" sketch:type="MSShapeGroup" points="79.4932944 105.314163 157.986578 110.417694 157.986571 135.439868 79.4932888 168.120689 1 135.439868 1.0000069 110.417694 "></polygon>
                <path d="M85.0674396,120.339122 C84.3611944,121.052339 83.7534517,121.666051 83.3247485,122.099915 C82.0758095,123.363804 81.2605299,124.14006 80.2841769,124.14006 C79.341897,124.14006 78.5867102,123.450329 77.2151076,122.200037 C76.9642047,121.970126 76.6581651,121.680884 76.3130962,121.349615 C76.305662,121.810672 76.3316816,122.282854 76.3992085,122.757508 C77.1828929,127.020739 83.624593,129.5856 84.8698148,133.365525 C85.7891727,136.09293 85.546943,140.413021 80.4848992,142.573066 C76.0194468,143.760937 72.7713382,141.546504 71.4449601,138.306127 C70.002733,134.461926 67.6721237,124.2853 64.9815771,124.996044 C62.9037293,125.555987 64.0646973,128.440374 64.1123999,129.485478 C64.257366,132.64242 63.9184922,132.918065 64.0386778,136.331493 C64.4258736,146.274501 72.3513082,152.89864 80.75129,152.396174 C88.168104,152.334989 95.8438747,146.650886 96.6257006,137.477337 C97.6627659,128.119612 91.064329,122.137615 85.0674396,120.339122 Z M76.560282,119.568428 C77.210771,120.208716 77.7708111,120.747646 78.1784509,121.119705 C79.1857797,122.038729 79.9031761,122.69385 80.2829378,122.69385 C80.6713727,122.69385 81.3918668,121.996702 82.2920197,121.084477 C82.5893861,120.783492 82.9747234,120.394746 83.417056,119.947286 C86.290359,117.045594 91.6813643,111.608707 92.8094982,110.472751 L92.8094982,96.6775083 C91.734023,95.7176941 86.7531355,91.6126806 80.2482451,91.6126806 C73.7247693,91.6126806 68.8516771,95.7677552 67.8102752,96.7306596 L67.8102752,110.661871 C68.8479601,111.737259 73.6281252,116.684659 76.560282,119.568428 Z M80.4223284,117.959673 C79.7117465,117.959673 79.1040039,117.523956 78.8481449,116.906535 C78.7657496,116.706908 78.7192861,116.489359 78.7192861,116.260684 C78.7192861,115.322502 79.4819071,114.561078 80.4223284,114.561078 C81.3633692,114.561078 82.1247511,115.322502 82.1247511,116.260684 C82.1247511,116.534476 82.0547461,116.788489 81.9395166,117.0184 C81.6594966,117.574017 81.0889247,117.959673 80.4223284,117.959673 L80.4223284,117.959673 L80.4223284,117.959673 Z M88.098099,108.253992 C88.8985103,108.253992 89.5471408,108.901079 89.5471408,109.700203 C89.5471408,110.499327 88.8985103,111.146414 88.098099,111.146414 C87.2976877,111.146414 86.6484377,110.499327 86.6484377,109.700203 C86.6484377,108.901079 87.2976877,108.253992 88.098099,108.253992 L88.098099,108.253992 L88.098099,108.253992 Z M80.4223284,97.2454859 C82.143956,97.2454859 83.5384806,98.6379272 83.5384806,100.355457 C83.5384806,102.072369 82.143956,103.463574 80.4223284,103.463574 C78.7013202,103.463574 77.3061761,102.072369 77.3061761,100.355457 C77.3055566,98.6379272 78.7007007,97.2454859 80.4223284,97.2454859 L80.4223284,97.2454859 L80.4223284,97.2454859 Z M72.6616844,111.145796 C71.8612731,111.145796 71.2126426,110.498709 71.2126426,109.699585 C71.2126426,108.900461 71.8612731,108.253374 72.6616844,108.253374 C73.4620956,108.253374 74.1113457,108.900461 74.1113457,109.699585 C74.1113457,110.498709 73.4620956,111.145796 72.6616844,111.145796 L72.6616844,111.145796 L72.6616844,111.145796 Z" id="Shape" fill="#262223" sketch:type="MSShapeGroup"></path>
                <rect id="Rectangle-13" fill="#262223" sketch:type="MSShapeGroup" x="0" y="0" width="160.512853" height="111"></rect>
                <path d="M1,62.9685727 L7.98591989,61.6275979 C7.98591989,62.3201236 7.99854112,62.9307961 8.02378395,63.4596339 C8.04902679,63.9884717 8.11528824,64.5645185 8.22257029,65.1877916 C8.32985234,65.8110646 8.47499647,66.3210077 8.65800703,66.717636 C8.84101759,67.1142644 9.09975278,67.4479308 9.43422035,67.7186454 C9.76868793,67.9893599 10.1631013,68.1247152 10.6174724,68.1247152 C11.9805855,68.1247152 12.6621318,67.2559233 12.6621318,65.5183135 C12.6621318,63.1385435 11.317971,60.7714005 8.62960898,58.4168132 L6.49028934,56.6036642 C5.80873278,56.0370523 5.26601995,55.5648829 4.86213457,55.1871416 C4.4582492,54.8094003 3.98179782,54.2994573 3.43276614,53.6572971 C2.88373446,53.015137 2.45461269,52.395021 2.14538795,51.7969307 C1.83616321,51.1988404 1.57111741,50.4779949 1.3502426,49.6343728 C1.12936778,48.7907506 1.01893203,47.8967764 1.01893203,46.9524232 C1.01893203,44.194912 1.89610742,42.0134889 3.65048451,40.4080885 C5.4048616,38.8026881 7.73347828,38 10.6364044,38 C13.0470952,38 15.0980449,38.8562007 16.7893149,40.5686278 C18.4805849,42.2810548 19.3262072,44.3460094 19.3262072,46.7635535 L19.3072752,47.0090841 L19.3072752,47.5756932 L12.188831,48.5578155 C12.188831,48.4193104 12.198297,48.2021124 12.2172291,47.9062151 C12.2361612,47.6103178 12.2456271,47.3679375 12.2456271,47.1790668 C12.2456271,46.7257773 12.2140741,46.2913814 12.150967,45.875866 C12.0878599,45.4603506 11.9837348,45.0448414 11.8385884,44.629326 C11.6934421,44.2138107 11.4694153,43.883292 11.1665013,43.6377602 C10.8635873,43.3922284 10.4975716,43.2694643 10.0684434,43.2694643 C9.31115836,43.2694643 8.74320307,43.5653572 8.36456053,44.1571518 C7.98591799,44.7489465 7.79659957,45.4477573 7.79659957,46.2536054 C7.79659957,46.9587224 7.90703532,47.6197597 8.12791013,48.2367371 C8.34878494,48.8537145 8.6832475,49.4297613 9.13130784,49.9648947 C9.57936817,50.5000282 9.99271341,50.9438675 10.3713559,51.296426 C10.7499985,51.6489845 11.2548476,52.0802327 11.8859185,52.5901834 C12.5169894,53.1001341 12.965043,53.4747219 13.2300928,53.713958 C14.201942,54.5701716 15.0223219,55.3728597 15.691257,56.1220465 C16.3601922,56.8712334 16.9912536,57.7179907 17.5844602,58.6623438 C18.1776669,59.606697 18.6225652,60.6265831 18.9191685,61.7220328 C19.2157718,62.8174825 19.3640713,64.001054 19.3640713,65.2727829 C19.3640713,67.6525529 18.5121383,69.601039 16.8082469,71.1182998 C15.1043555,72.6355605 13.034474,73.3941795 10.5985403,73.3941795 C9.02086309,73.3941795 7.61990672,73.1045822 6.39562918,72.5253789 C5.17135164,71.9461757 4.18374051,71.1592265 3.43276614,70.1645078 C2.68179177,69.1697892 2.10437057,68.0680603 1.70048519,66.8592883 C1.29659982,65.6505162 1.06310709,64.353624 1,62.9685727 L1,62.9685727 Z M25.8566682,72.6953616 L25.8566682,38.6988178 L40.0746244,38.6988178 L40.0746244,43.42056 L32.7479279,43.42056 L32.7479279,52.6751747 L37.9353047,52.6751747 L37.9353047,57.5102387 L32.7479279,57.5102387 L32.7479279,67.9736194 L40.0746244,67.9736194 L40.0746244,72.6953616 L25.8566682,72.6953616 Z M53.1745005,52.8451575 L55.1434319,52.8451575 C55.6735314,52.8451575 56.1278957,52.6688808 56.5065382,52.3163223 C56.8851807,51.9637638 57.1596925,51.5167767 57.3300816,50.9753476 C57.5004708,50.4339184 57.6203724,49.9365665 57.6897902,49.483277 C57.759208,49.0299875 57.7939164,48.6018872 57.7939164,48.1989631 C57.7939164,47.7960391 57.7655186,47.38053 57.7087223,46.9524232 C57.6519259,46.5243164 57.550956,46.0489991 57.4058097,45.5264571 C57.2606634,45.003915 57.0208601,44.5758146 56.6863925,44.2421432 C56.3519249,43.9084717 55.9448903,43.7416385 55.4652764,43.7416385 L53.1745005,43.7416385 L53.1745005,52.8451575 Z M46.2832408,72.6953616 L46.2832408,38.6988178 L53.7803256,38.6988178 C55.484217,38.6988178 56.9829879,38.8593555 58.2766832,39.1804355 C59.5703786,39.5015156 60.7031338,40.0051631 61.674983,40.6913931 C62.6468322,41.377623 63.3851741,42.3030752 63.8900308,43.4677775 C64.3948875,44.6324797 64.6473121,46.0269536 64.6473121,47.651241 C64.6473121,48.3563581 64.6220696,48.9859174 64.5715839,49.5399379 C64.5210983,50.0939584 64.4043519,50.7266656 64.2213413,51.4380783 C64.0383308,52.149491 63.7890615,52.7790503 63.4735261,53.3267752 C63.1579906,53.8745 62.7036264,54.4127732 62.1104197,54.941611 C61.5172131,55.4704488 60.8167349,55.9111403 60.0089642,56.2636988 C62.0536339,62.7356658 63.8332271,68.212832 65.3477973,72.6953616 L58.2104211,72.6953616 L54.3104225,57.0380645 L53.1745005,57.0380645 L53.1745005,72.6953616 L46.2832408,72.6953616 Z M70.8369965,62.0619982 L70.8369965,50.08766 C70.8369965,42.0543625 74.1879327,38.0377739 80.8899056,38.0377739 C82.3035044,38.0377739 83.5624719,38.2234939 84.666846,38.5949395 C85.7712201,38.9663851 86.6957251,39.4794759 87.4403887,40.1342275 C88.1850524,40.788979 88.797182,41.5948149 89.2767959,42.5517595 C89.7564097,43.508704 90.1034935,44.5474769 90.3180576,45.6681093 C90.5326217,46.7887417 90.6399022,48.022678 90.6399022,49.3699552 L90.6399022,51.3719739 L84.051555,51.3719739 L84.051555,48.9922158 C84.051555,48.4004212 84.0357784,47.8810347 84.0042249,47.4340409 C83.9726713,46.9870471 83.8937887,46.4896952 83.7675745,45.9419704 C83.6413603,45.3942455 83.4709737,44.9441106 83.2564096,44.5915521 C83.0418455,44.2389936 82.7326254,43.9431007 82.32874,43.7038646 C81.9248547,43.4646284 81.445248,43.3450122 80.8899056,43.3450122 C78.7821288,43.3450122 77.7282562,45.01964 77.7282562,48.3689459 L77.7282562,63.0441206 C77.7282562,66.3808351 78.7821288,68.0491673 80.8899056,68.0491673 C82.985061,68.0491673 84.0326229,66.3178792 84.0326229,62.8552509 L84.0326229,60.1355274 L80.1326243,60.1355274 L80.1326243,55.2060286 L90.9238827,55.2060286 L90.9238827,72.6953616 L86.1908746,72.6953616 L85.3200011,70.3156036 C84.7394159,71.2221826 83.9127254,71.9556192 82.8399049,72.5159354 C81.7670844,73.0762516 80.6627269,73.3564056 79.5267993,73.3564056 C78.3025217,73.3564056 77.1886983,73.132912 76.1852956,72.6859182 C75.1818928,72.2389243 74.3552024,71.6471386 73.7051994,70.9105431 C73.0551963,70.1739476 72.5093282,69.3083036 72.0675786,68.3135849 C71.6258289,67.3188662 71.3102982,66.3021279 71.120977,65.2633394 C70.9316557,64.224551 70.8369965,63.1574479 70.8369965,62.0619982 L70.8369965,62.0619982 Z M98.4577414,72.6953616 L98.4577414,38.6988178 L105.349001,38.6988178 L105.349001,72.6953616 L98.4577414,72.6953616 Z M112.712471,61.5142761 L112.712471,50.08766 C112.712471,42.0543625 116.031855,38.0377739 122.67072,38.0377739 C129.322208,38.0377739 132.647901,42.0543625 132.647901,50.08766 L132.647901,61.3442934 C132.647901,62.704162 132.546932,63.9601328 132.344989,65.1122437 C132.143046,66.2643545 131.799118,67.35664 131.313193,68.3891328 C130.827269,69.4216256 130.208828,70.2998608 129.457854,71.0238649 C128.70688,71.747869 127.757132,72.3176202 126.608583,72.7331356 C125.460034,73.148651 124.147426,73.3564056 122.67072,73.3564056 C121.206636,73.3564056 119.900339,73.1517988 118.75179,72.7425791 C117.603241,72.3333594 116.656649,71.7793472 115.911985,71.0805258 C115.167321,70.3817045 114.552036,69.5255038 114.066112,68.5118981 C113.580187,67.4982923 113.233103,66.4185981 113.02485,65.2727829 C112.816597,64.1269677 112.712471,62.8741447 112.712471,61.5142761 L112.712471,61.5142761 Z M125.756642,63.0630076 L125.756642,48.3689459 C125.756642,45.01964 124.728012,43.3450122 122.67072,43.3450122 C122.052271,43.3450122 121.52849,43.4992542 121.099362,43.8077429 C120.670234,44.1162316 120.354703,44.5380363 120.15276,45.0731698 C119.950817,45.6083033 119.808829,46.1371331 119.726789,46.6596752 C119.64475,47.1822173 119.603731,47.7519685 119.603731,48.3689459 L119.603731,63.0630076 C119.603731,66.3997221 120.626051,68.0680543 122.67072,68.0680543 C124.728012,68.0680543 125.756642,66.3997221 125.756642,63.0630076 L125.756642,63.0630076 Z M138.837586,62.9685727 L145.823506,61.6275979 C145.823506,62.3201236 145.836127,62.9307961 145.86137,63.4596339 C145.886613,63.9884717 145.952874,64.5645185 146.060156,65.1877916 C146.167438,65.8110646 146.312582,66.3210077 146.495593,66.717636 C146.678603,67.1142644 146.937339,67.4479308 147.271806,67.7186454 C147.606274,67.9893599 148.000687,68.1247152 148.455058,68.1247152 C149.818171,68.1247152 150.499718,67.2559233 150.499718,65.5183135 C150.499718,63.1385435 149.155557,60.7714005 146.467195,58.4168132 L144.327875,56.6036642 C143.646319,56.0370523 143.103606,55.5648829 142.69972,55.1871416 C142.295835,54.8094003 141.819384,54.2994573 141.270352,53.6572971 C140.72132,53.015137 140.292199,52.395021 139.982974,51.7969307 C139.673749,51.1988404 139.408703,50.4779949 139.187828,49.6343728 C138.966954,48.7907506 138.856518,47.8967764 138.856518,46.9524232 C138.856518,44.194912 139.733693,42.0134889 141.48807,40.4080885 C143.242447,38.8026881 145.571064,38 148.47399,38 C150.884681,38 152.935631,38.8562007 154.626901,40.5686278 C156.318171,42.2810548 157.163793,44.3460094 157.163793,46.7635535 L157.144861,47.0090841 L157.144861,47.5756932 L150.026417,48.5578155 C150.026417,48.4193104 150.035883,48.2021124 150.054815,47.9062151 C150.073747,47.6103178 150.083213,47.3679375 150.083213,47.1790668 C150.083213,46.7257773 150.05166,46.2913814 149.988553,45.875866 C149.925446,45.4603506 149.821321,45.0448414 149.676174,44.629326 C149.531028,44.2138107 149.307001,43.883292 149.004087,43.6377602 C148.701173,43.3922284 148.335157,43.2694643 147.906029,43.2694643 C147.148744,43.2694643 146.580789,43.5653572 146.202146,44.1571518 C145.823504,44.7489465 145.634185,45.4477573 145.634185,46.2536054 C145.634185,46.9587224 145.744621,47.6197597 145.965496,48.2367371 C146.186371,48.8537145 146.520833,49.4297613 146.968894,49.9648947 C147.416954,50.5000282 147.830299,50.9438675 148.208942,51.296426 C148.587584,51.6489845 149.092433,52.0802327 149.723504,52.5901834 C150.354575,53.1001341 150.802629,53.4747219 151.067679,53.713958 C152.039528,54.5701716 152.859908,55.3728597 153.528843,56.1220465 C154.197778,56.8712334 154.828839,57.7179907 155.422046,58.6623438 C156.015253,59.606697 156.460151,60.6265831 156.756754,61.7220328 C157.053358,62.8174825 157.201657,64.001054 157.201657,65.2727829 C157.201657,67.6525529 156.349724,69.601039 154.645833,71.1182998 C152.941941,72.6355605 150.87206,73.3941795 148.436126,73.3941795 C146.858449,73.3941795 145.457493,73.1045822 144.233215,72.5253789 C143.008937,71.9461757 142.021326,71.1592265 141.270352,70.1645078 C140.519378,69.1697892 139.941956,68.0680603 139.538071,66.8592883 C139.134186,65.6505162 138.900693,64.353624 138.837586,62.9685727 L138.837586,62.9685727 Z" id="SERGIOS" fill="#FFFFFF" sketch:type="MSShapeGroup"></path>
                <path d="M5.76683851,87.3414656 L4.42113686,87.3414656 L4.42113686,80.2807099 L2,80.2807099 L2,79.1291944 L8.18797537,79.1291944 L8.18797537,80.2807099 L5.76683851,80.2807099 L5.76683851,87.3414656 Z M20.418658,83.2240957 C20.418658,84.5609838 20.0836436,85.6001459 19.4136047,86.3416132 C18.7435658,87.0830805 17.7948274,87.4538086 16.5673612,87.4538086 C15.3248801,87.4538086 14.3705113,87.0858891 13.7042261,86.3500389 C13.0379409,85.6141888 12.7048033,84.5684734 12.7048033,83.2128614 C12.7048033,81.8572495 13.0398178,80.816215 13.7098567,80.0897268 C14.3798956,79.3632386 15.3361412,79 16.5786223,79 C17.8023348,79 18.7482579,79.3688557 19.4164199,80.1065783 C20.084582,80.8443008 20.418658,81.8834629 20.418658,83.2240957 L20.418658,83.2240957 Z M14.1349632,83.2240957 C14.1349632,84.2351875 14.3395379,85.0019206 14.7486933,85.5243181 C15.1578487,86.0467155 15.7640653,86.3079103 16.5673612,86.3079103 C17.3669034,86.3079103 17.9703047,86.0495241 18.3775833,85.5327438 C18.7848618,85.0159635 18.9884981,84.2464219 18.9884981,83.2240957 C18.9884981,82.2167487 18.7867387,81.4528241 18.3832138,80.9322991 C17.979689,80.4117741 17.3781645,80.1515155 16.5786223,80.1515155 C15.7715726,80.1515155 15.1625408,80.4117741 14.7515086,80.9322991 C14.3404763,81.4528241 14.1349632,82.2167487 14.1349632,83.2240957 L14.1349632,83.2240957 Z M33.5614898,87.3414656 L32.0975466,87.3414656 L30.70117,82.4433121 C30.6411105,82.2298594 30.5660372,81.9218555 30.475948,81.5192911 C30.3858587,81.1167268 30.3314306,80.8368084 30.312662,80.6795274 C30.2751248,80.9191936 30.2141278,81.2300061 30.1296691,81.6119741 C30.0452104,81.9939421 29.9748292,82.2785415 29.9185234,82.4657807 L28.5559301,87.3414656 L27.0919869,87.3414656 L26.0278128,83.2297129 L24.946747,79.1291944 L26.3206014,79.1291944 L27.4973866,83.915005 C27.6813188,84.6826858 27.812697,85.3604816 27.8915251,85.9484128 C27.932816,85.6301061 27.9947515,85.2743569 28.0773333,84.8811546 C28.1599151,84.4879522 28.2349884,84.1696503 28.3025553,83.9262393 L29.6426264,79.1291944 L30.977067,79.1291944 L32.3509214,83.9487079 C32.4823016,84.3943372 32.6211871,85.0608989 32.7675821,85.9484128 C32.8238879,85.4129086 32.9590198,84.7313681 33.1729818,83.9037707 L34.3441364,79.1291944 L35.7067297,79.1291944 L33.5614898,87.3414656 Z M40.7640905,87.3414656 L40.7640905,79.1291944 L42.1097922,79.1291944 L42.1097922,87.3414656 L40.7640905,87.3414656 Z M55.0330325,87.3414656 L53.3832811,87.3414656 L49.3349151,80.7974875 L49.2898707,80.7974875 L49.3180234,81.1626022 C49.3705755,81.8591321 49.3968511,82.4957359 49.3968511,83.0724327 L49.3968511,87.3414656 L48.1750216,87.3414656 L48.1750216,79.1291944 L49.8078813,79.1291944 L53.8449863,85.6394696 L53.8787696,85.6394696 C53.8712622,85.5533396 53.8562475,85.2397186 53.8337252,84.6985972 C53.8112029,84.1574759 53.7999419,83.7352578 53.7999419,83.4319302 L53.7999419,79.1291944 L55.0330325,79.1291944 L55.0330325,87.3414656 Z M64.4653314,82.8870668 L67.4945677,82.8870668 L67.4945677,87.0100539 C66.9990768,87.1710796 66.5233,87.2852938 66.0672231,87.3526999 C65.6111462,87.4201061 65.1184779,87.4538086 64.5892035,87.4538086 C63.3429687,87.4538086 62.3820309,87.0858891 61.7063614,86.3500389 C61.030692,85.6141888 60.6928623,84.5759629 60.6928623,83.23533 C60.6928623,81.9134211 61.0738591,80.8789399 61.8358641,80.1318554 C62.5978691,79.3847709 63.647018,79.0112343 64.983342,79.0112343 C65.8429438,79.0112343 66.6574886,79.1760023 67.4270011,79.5055434 L66.9540348,80.6233559 C66.2858728,80.3162836 65.6177208,80.1627498 64.9495587,80.1627498 C64.0711884,80.1627498 63.3767608,80.4379873 62.8662549,80.9884706 C62.3557491,81.5389539 62.1005,82.2916443 62.1005,83.2465643 C62.1005,84.2501666 62.3304119,85.0131549 62.7902425,85.5355524 C63.2500731,86.0579498 63.9116562,86.3191446 64.7750117,86.3191446 C65.2104431,86.3191446 65.6758973,86.264846 66.1713883,86.1562473 L66.1713883,84.0385823 L64.4653314,84.0385823 L64.4653314,82.8870668 Z M84.9965721,85.1114577 C84.9965721,85.8416906 84.7319388,86.414634 84.2026644,86.8303051 C83.67339,87.2459762 82.9433025,87.4538086 82.0123801,87.4538086 C81.0814577,87.4538086 80.3194641,87.3096366 79.7263765,87.0212882 L79.7263765,85.7518126 C80.1017484,85.9278175 80.5005751,86.0663724 80.9228685,86.1674816 C81.345162,86.2685908 81.7383582,86.3191446 82.1024689,86.3191446 C82.6354971,86.3191446 83.0286933,86.2180369 83.2820693,86.0158186 C83.5354454,85.8136002 83.6621315,85.5421074 83.6621315,85.201332 C83.6621315,84.8942597 83.545768,84.6340011 83.3130374,84.4205484 C83.0803068,84.2070957 82.5998379,83.9543265 81.8716164,83.6622333 C81.1208725,83.3589058 80.591606,83.0125184 80.283801,82.6230608 C79.975996,82.2336033 79.8220959,81.7655122 79.8220959,81.2187737 C79.8220959,80.5334781 80.066084,79.9942373 80.5540675,79.6010349 C81.042051,79.2078325 81.6970652,79.0112343 82.5191297,79.0112343 C83.3074108,79.0112343 84.0919263,79.1834918 84.8727,79.528012 L84.4447781,80.6233559 C83.7128028,80.3162836 83.0596655,80.1627498 82.4853464,80.1627498 C82.049915,80.1627498 81.7195926,80.2573041 81.4943695,80.4464158 C81.2691463,80.6355274 81.1565364,80.885488 81.1565364,81.1963051 C81.1565364,81.4097578 81.2015804,81.5923133 81.2916696,81.7439771 C81.3817589,81.8956409 81.5300286,82.0388767 81.7364831,82.1736889 C81.9429377,82.3085012 82.3145503,82.4863758 82.8513322,82.7073181 C83.455681,82.9582186 83.8986133,83.1922641 84.1801422,83.4094616 C84.4616712,83.6266591 84.6681226,83.8719388 84.7995028,84.1453081 C84.930883,84.4186774 84.9965721,84.740724 84.9965721,85.1114577 L84.9965721,85.1114577 Z M95.1383203,87.3414656 L90.4818548,87.3414656 L90.4818548,79.1291944 L95.1383203,79.1291944 L95.1383203,80.2638584 L91.8275564,80.2638584 L91.8275564,82.4994836 L94.9299899,82.4994836 L94.9299899,83.6229133 L91.8275564,83.6229133 L91.8275564,86.2011845 L95.1383203,86.2011845 L95.1383203,87.3414656 Z M102.155113,82.9488555 L103.089784,82.9488555 C103.716655,82.9488555 104.170849,82.8327689 104.452378,82.6005922 C104.733907,82.3684156 104.874669,82.0239006 104.874669,81.5670369 C104.874669,81.1026836 104.722646,80.7694028 104.418594,80.5671845 C104.114543,80.3649661 103.656596,80.2638584 103.04474,80.2638584 L102.155113,80.2638584 L102.155113,82.9488555 Z M102.155113,84.0610509 L102.155113,87.3414656 L100.809411,87.3414656 L100.809411,79.1291944 L103.134829,79.1291944 C104.197131,79.1291944 104.983524,79.327665 105.494029,79.7246122 C106.004535,80.1215593 106.259784,80.7207158 106.259784,81.5220997 C106.259784,82.5444259 105.726764,83.2727755 104.660708,83.7071705 L106.986125,87.3414656 L105.454616,87.3414656 L103.483923,84.0610509 L102.155113,84.0610509 Z M116.761888,79.1291944 L118.158265,79.1291944 L115.275422,87.3414656 L113.856524,87.3414656 L110.984943,79.1291944 L112.370058,79.1291944 L114.087376,84.2351825 C114.177466,84.4785935 114.273184,84.7922145 114.374534,85.1760549 C114.475885,85.5598953 114.541574,85.8454308 114.571604,86.03267 C114.620402,85.7480664 114.695475,85.4185303 114.796826,85.0440519 C114.898176,84.6695734 114.980757,84.3924635 115.04457,84.2127139 L116.761888,79.1291944 Z M123.136798,87.3414656 L123.136798,79.1291944 L124.482499,79.1291944 L124.482499,87.3414656 L123.136798,87.3414656 Z M134.049931,80.1627498 C133.276665,80.1627498 132.668572,80.4361149 132.225633,80.9828534 C131.782694,81.529592 131.561228,82.2841547 131.561228,83.2465643 C131.561228,84.2539113 131.774248,85.0159635 132.200295,85.5327438 C132.626343,86.0495241 133.242882,86.3079103 134.049931,86.3079103 C134.399027,86.3079103 134.736857,86.2732716 135.06343,86.2039931 C135.390004,86.1347145 135.729711,86.0457772 136.08256,85.9371785 L136.08256,87.088694 C135.43692,87.3321049 134.704956,87.4538086 133.886645,87.4538086 C132.681701,87.4538086 131.756424,87.0896338 131.110784,86.3612732 C130.465144,85.6329126 130.142329,84.590942 130.142329,83.23533 C130.142329,82.3815192 130.299044,81.6344459 130.61248,80.9940877 C130.925916,80.3537296 131.37917,79.8631702 131.972258,79.5223948 C132.565346,79.1816194 133.26165,79.0112343 134.061192,79.0112343 C134.902026,79.0112343 135.679034,79.1872365 136.39224,79.5392463 L135.908013,80.6570588 C135.630238,80.5259914 135.336514,80.410841 135.026832,80.3116042 C134.71715,80.2123674 134.39152,80.1627498 134.049931,80.1627498 L134.049931,80.1627498 Z M146.404486,87.3414656 L141.748021,87.3414656 L141.748021,79.1291944 L146.404486,79.1291944 L146.404486,80.2638584 L143.093722,80.2638584 L143.093722,82.4994836 L146.196156,82.4994836 L146.196156,83.6229133 L143.093722,83.6229133 L143.093722,86.2011845 L146.404486,86.2011845 L146.404486,87.3414656 Z M156.822131,85.1114577 C156.822131,85.8416906 156.557498,86.414634 156.028224,86.8303051 C155.498949,87.2459762 154.768862,87.4538086 153.837939,87.4538086 C152.907017,87.4538086 152.145023,87.3096366 151.551936,87.0212882 L151.551936,85.7518126 C151.927308,85.9278175 152.326134,86.0663724 152.748428,86.1674816 C153.170721,86.2685908 153.563917,86.3191446 153.928028,86.3191446 C154.461056,86.3191446 154.854253,86.2180369 155.107629,86.0158186 C155.361005,85.8136002 155.487691,85.5421074 155.487691,85.201332 C155.487691,84.8942597 155.371327,84.6340011 155.138597,84.4205484 C154.905866,84.2070957 154.425397,83.9543265 153.697176,83.6622333 C152.946432,83.3589058 152.417165,83.0125184 152.10936,82.6230608 C151.801555,82.2336033 151.647655,81.7655122 151.647655,81.2187737 C151.647655,80.5334781 151.891643,79.9942373 152.379627,79.6010349 C152.86761,79.2078325 153.522624,79.0112343 154.344689,79.0112343 C155.13297,79.0112343 155.917486,79.1834918 156.698259,79.528012 L156.270337,80.6233559 C155.538362,80.3162836 154.885225,80.1627498 154.310906,80.1627498 C153.875474,80.1627498 153.545152,80.2573041 153.319929,80.4464158 C153.094706,80.6355274 152.982096,80.885488 152.982096,81.1963051 C152.982096,81.4097578 153.02714,81.5923133 153.117229,81.7439771 C153.207318,81.8956409 153.355588,82.0388767 153.562042,82.1736889 C153.768497,82.3085012 154.14011,82.4863758 154.676891,82.7073181 C155.28124,82.9582186 155.724172,83.1922641 156.005701,83.4094616 C156.28723,83.6266591 156.493682,83.8719388 156.625062,84.1453081 C156.756442,84.4186774 156.822131,84.740724 156.822131,85.1114577 L156.822131,85.1114577 Z" id="TOWING-SERVICES" fill="#FEC015" sketch:type="MSShapeGroup"></path>
            </g>
        </g>
    </g>
</svg>