<svg width="228" height="58" viewBox="0 0 228 58" xmlns="http://www.w3.org/2000/svg" xmlns:sketch="http://www.bohemiancoding.com/sketch/ns"><title>Group + Group Copy 7</title><desc>Created with Sketch.</desc><g sketch:type="MSLayerGroup" fill="none"><g id="Group" sketch:type="MSShapeGroup"><path d="M68 27.431l7.119-1.366c0 .705.013 1.327.039 1.866.026.539.093 1.125.203 1.76.109.635.257 1.154.444 1.558.187.404.45.744.791 1.02s.743.414 1.206.414c1.389 0 2.084-.885 2.084-2.655 0-2.424-1.37-4.835-4.11-7.233l-2.18-1.847c-.695-.577-1.248-1.058-1.659-1.443-.412-.385-.897-.904-1.457-1.558s-.997-1.286-1.312-1.895c-.315-.609-.585-1.343-.81-2.203-.225-.859-.338-1.77-.338-2.732 0-2.809.894-5.03 2.682-6.666 1.788-1.635 4.161-2.453 7.119-2.453 2.457 0 4.547.872 6.27 2.616 1.724 1.744 2.585 3.847 2.585 6.31l-.019.25v.577l-7.254 1c0-.141.01-.362.029-.664.019-.301.029-.548.029-.741 0-.462-.032-.904-.096-1.327-.064-.423-.17-.846-.318-1.27-.148-.423-.376-.76-.685-1.01-.309-.25-.682-.375-1.119-.375-.772 0-1.351.301-1.736.904-.386.603-.579 1.315-.579 2.135 0 .718.113 1.391.338 2.02.225.628.566 1.215 1.023 1.76.457.545.878.997 1.264 1.356.386.359.9.798 1.544 1.318.643.519 1.1.901 1.37 1.145.99.872 1.826 1.69 2.508 2.453.682.763 1.325 1.625 1.929 2.587.605.962 1.058 2.001 1.36 3.116.302 1.116.453 2.321.453 3.617 0 2.424-.868 4.408-2.605 5.954-1.736 1.545-3.846 2.318-6.328 2.318-1.608 0-3.036-.295-4.283-.885-1.248-.59-2.254-1.391-3.019-2.405-.765-1.013-1.354-2.135-1.765-3.366-.412-1.231-.65-2.552-.714-3.963zm25.332 9.907v-34.626h14.49v4.809h-7.467v9.426h5.286v4.925h-5.286v10.657h7.467v4.809h-14.49zm27.84-20.218h2.007c.54 0 1.003-.18 1.389-.539.386-.359.666-.814.839-1.366.174-.551.296-1.058.367-1.52.071-.462.106-.898.106-1.308 0-.41-.029-.834-.087-1.27-.058-.436-.161-.92-.309-1.452-.148-.532-.392-.968-.733-1.308-.341-.34-.756-.51-1.244-.51h-2.335v9.272zm-7.023 20.218v-34.626h7.64c1.736 0 3.264.164 4.582.491 1.318.327 2.473.84 3.463 1.539.99.699 1.743 1.642 2.257 2.828.515 1.186.772 2.607.772 4.261 0 .718-.026 1.359-.077 1.924-.051.564-.17 1.209-.357 1.933-.187.725-.441 1.366-.762 1.924-.322.558-.785 1.106-1.389 1.645-.605.539-1.318.987-2.142 1.347 2.084 6.592 3.897 12.17 5.441 16.736h-7.274l-3.975-15.947h-1.158v15.947h-7.023zm25.023-10.83v-12.196c0-8.182 3.415-12.273 10.245-12.273 1.441 0 2.724.189 3.849.567 1.125.378 2.068.901 2.827 1.568.759.667 1.383 1.488 1.871 2.462.489.975.842 2.033 1.061 3.174.219 1.141.328 2.398.328 3.77v2.039h-6.714v-2.424c0-.603-.016-1.132-.048-1.587-.032-.455-.113-.962-.241-1.52-.129-.558-.302-1.016-.521-1.375-.219-.359-.534-.66-.945-.904-.412-.244-.9-.365-1.466-.365-2.148 0-3.222 1.706-3.222 5.117v14.947c0 3.399 1.074 5.098 3.222 5.098 2.135 0 3.203-1.763 3.203-5.29v-2.77h-3.975v-5.021h10.997v17.813h-4.823l-.888-2.424c-.592.923-1.434 1.67-2.527 2.241-1.093.571-2.219.856-3.376.856-1.248 0-2.383-.228-3.405-.683-1.023-.455-1.865-1.058-2.527-1.808-.662-.75-1.219-1.632-1.669-2.645-.45-1.013-.772-2.049-.965-3.107-.193-1.058-.289-2.145-.289-3.261zm28.149 10.83v-34.626h7.023v34.626h-7.023zm14.527-11.388v-11.638c0-8.182 3.383-12.273 10.149-12.273 6.779 0 10.168 4.091 10.168 12.273v11.465c0 1.385-.103 2.664-.309 3.838-.206 1.173-.556 2.286-1.052 3.338-.495 1.052-1.125 1.946-1.891 2.684-.765.737-1.733 1.318-2.904 1.741-1.17.423-2.508.635-4.013.635-1.492 0-2.823-.208-3.994-.625-1.17-.417-2.135-.981-2.894-1.693-.759-.712-1.386-1.584-1.881-2.616-.495-1.032-.849-2.132-1.061-3.299-.212-1.167-.318-2.443-.318-3.828zm13.293 1.577v-14.966c0-3.411-1.048-5.117-3.145-5.117-.63 0-1.164.157-1.601.471-.437.314-.759.744-.965 1.289-.206.545-.351 1.084-.434 1.616-.084.532-.125 1.113-.125 1.741v14.966c0 3.399 1.042 5.098 3.126 5.098 2.097 0 3.145-1.699 3.145-5.098zm13.331-.096l7.119-1.366c0 .705.013 1.327.039 1.866.026.539.093 1.125.203 1.76.109.635.257 1.154.444 1.558.187.404.45.744.791 1.02s.743.414 1.206.414c1.389 0 2.084-.885 2.084-2.655 0-2.424-1.37-4.835-4.11-7.233l-2.18-1.847c-.695-.577-1.248-1.058-1.659-1.443-.412-.385-.897-.904-1.457-1.558s-.997-1.286-1.312-1.895c-.315-.609-.585-1.343-.81-2.203-.225-.859-.338-1.77-.338-2.732 0-2.809.894-5.03 2.682-6.666 1.788-1.635 4.161-2.453 7.119-2.453 2.457 0 4.547.872 6.27 2.616 1.724 1.744 2.585 3.847 2.585 6.31l-.019.25v.577l-7.254 1c0-.141.01-.362.029-.664.019-.301.029-.548.029-.741 0-.462-.032-.904-.096-1.327-.064-.423-.17-.846-.318-1.27-.148-.423-.376-.76-.685-1.01-.309-.25-.682-.375-1.119-.375-.772 0-1.351.301-1.736.904-.386.603-.579 1.315-.579 2.135 0 .718.113 1.391.338 2.02.225.628.566 1.215 1.023 1.76.457.545.878.997 1.264 1.356.386.359.9.798 1.544 1.318.643.519 1.1.901 1.37 1.145.99.872 1.826 1.69 2.508 2.453.682.763 1.325 1.625 1.929 2.587.605.962 1.058 2.001 1.36 3.116.302 1.116.453 2.321.453 3.617 0 2.424-.868 4.408-2.605 5.954-1.736 1.545-3.846 2.318-6.328 2.318-1.608 0-3.036-.295-4.283-.885-1.248-.59-2.254-1.391-3.019-2.405-.765-1.013-1.354-2.135-1.765-3.366-.412-1.231-.65-2.552-.714-3.963z" fill="#fff"/><path d="M72.858 56.329h-1.371v-7.192h-2.467v-1.173h6.306v1.173h-2.467v7.192zm14.932-4.194c0 1.362-.341 2.42-1.024 3.175-.683.755-1.65 1.133-2.901 1.133-1.266 0-2.239-.375-2.918-1.124-.679-.749-1.019-1.815-1.019-3.195 0-1.381.341-2.441 1.024-3.181.683-.74 1.657-1.11 2.924-1.11 1.247 0 2.211.376 2.892 1.127s1.021 1.81 1.021 3.175zm-6.404 0c0 1.03.208 1.811.625 2.343.417.532 1.035.798 1.853.798.815 0 1.43-.263 1.845-.79.415-.526.623-1.31.623-2.351 0-1.026-.206-1.804-.617-2.334-.411-.53-1.024-.795-1.839-.795-.822 0-1.443.265-1.862.795-.419.53-.628 1.308-.628 2.334zm19.798 4.194h-1.492l-1.423-4.989c-.061-.217-.138-.531-.23-.941-.092-.41-.147-.695-.166-.855-.038.244-.1.561-.186.95-.086.389-.158.679-.215.87l-1.389 4.966h-1.492l-1.085-4.188-1.102-4.176h1.4l1.199 4.874c.187.782.321 1.472.402 2.071.042-.324.105-.687.189-1.087.084-.4.161-.725.23-.973l1.366-4.886h1.36l1.4 4.909c.134.454.275 1.133.425 2.037.057-.545.195-1.24.413-2.083l1.194-4.863h1.389l-2.186 8.364zm7.34 0v-8.364h1.371v8.364h-1.371zm14.542 0h-1.681l-4.126-6.665h-.046l.029.372c.054.709.08 1.358.08 1.945v4.348h-1.245v-8.364h1.664l4.114 6.631h.034l-.046-.958c-.023-.551-.034-.981-.034-1.29v-4.382h1.257v8.364zm9.613-4.537h3.087v4.199c-.505.164-.99.28-1.455.349-.465.069-.967.103-1.506.103-1.27 0-2.249-.375-2.938-1.124-.689-.749-1.033-1.807-1.033-3.172 0-1.346.388-2.4 1.165-3.161.777-.761 1.846-1.141 3.208-1.141.876 0 1.706.168 2.49.503l-.482 1.139c-.681-.313-1.362-.469-2.043-.469-.895 0-1.603.28-2.123.841-.52.561-.78 1.327-.78 2.3 0 1.022.234 1.799.703 2.331s1.143.798 2.023.798c.444 0 .918-.055 1.423-.166v-2.157h-1.739v-1.173zm20.924 2.266c0 .744-.27 1.327-.809 1.751-.539.423-1.283.635-2.232.635-.949 0-1.725-.147-2.33-.441v-1.293c.383.179.789.32 1.219.423.43.103.831.154 1.202.154.543 0 .944-.103 1.202-.309.258-.206.387-.482.387-.83 0-.313-.119-.578-.356-.795-.237-.217-.727-.475-1.469-.772-.765-.309-1.304-.662-1.618-1.058-.314-.397-.471-.873-.471-1.43 0-.698.249-1.247.746-1.648.497-.4 1.165-.601 2.003-.601.803 0 1.603.175 2.399.526l-.436 1.116c-.746-.313-1.412-.469-1.997-.469-.444 0-.78.096-1.01.289-.23.193-.344.447-.344.764 0 .217.046.403.138.558.092.154.243.3.453.438.21.137.589.318 1.136.544.616.256 1.067.494 1.354.715.287.221.497.471.631.749s.201.606.201.984zm10.336 2.271h-4.745v-8.364h4.745v1.156h-3.374v2.277h3.162v1.144h-3.162v2.626h3.374v1.161zm7.151-4.474h.953c.639 0 1.102-.118 1.389-.355.287-.236.43-.587.43-1.053 0-.473-.155-.812-.465-1.018-.31-.206-.777-.309-1.4-.309h-.907v2.735zm0 1.133v3.341h-1.371v-8.364h2.37c1.083 0 1.884.202 2.404.606.52.404.78 1.015.78 1.831 0 1.041-.543 1.783-1.63 2.226l2.37 3.702h-1.561l-2.008-3.341h-1.354zm14.886-5.023h1.423l-2.938 8.364h-1.446l-2.926-8.364h1.412l1.75 5.201c.092.248.189.567.293.958.103.391.17.682.201.872.05-.29.126-.626.23-1.007.103-.381.187-.664.252-.847l1.75-5.178zm6.497 8.364v-8.364h1.371v8.364h-1.371zm11.122-7.312c-.788 0-1.408.278-1.859.835-.451.557-.677 1.325-.677 2.306 0 1.026.217 1.802.651 2.329.434.526 1.063.79 1.885.79.356 0 .7-.035 1.033-.106.333-.071.679-.161 1.039-.272v1.173c-.658.248-1.404.372-2.238.372-1.228 0-2.171-.371-2.829-1.113-.658-.742-.987-1.803-.987-3.184 0-.87.16-1.631.479-2.283.319-.652.781-1.152 1.386-1.499.604-.347 1.314-.521 2.129-.521.857 0 1.649.179 2.376.538l-.493 1.139c-.283-.133-.582-.251-.898-.352-.316-.101-.647-.152-.996-.152zm12.591 7.312h-4.745v-8.364h4.745v1.156h-3.374v2.277h3.162v1.144h-3.162v2.626h3.374v1.161zm10.617-2.271c0 .744-.27 1.327-.809 1.751-.539.423-1.283.635-2.232.635-.949 0-1.725-.147-2.33-.441v-1.293c.383.179.789.32 1.219.423.43.103.831.154 1.202.154.543 0 .944-.103 1.202-.309.258-.206.387-.482.387-.83 0-.313-.119-.578-.356-.795-.237-.217-.727-.475-1.469-.772-.765-.309-1.304-.662-1.618-1.058-.314-.397-.471-.873-.471-1.43 0-.698.249-1.247.746-1.648.497-.4 1.165-.601 2.003-.601.803 0 1.603.175 2.399.526l-.436 1.116c-.746-.313-1.412-.469-1.997-.469-.444 0-.78.096-1.01.289-.23.193-.344.447-.344.764 0 .217.046.403.138.558.092.154.243.3.453.438.21.137.589.318 1.136.544.616.256 1.067.494 1.354.715.287.221.497.471.631.749s.201.606.201.984z" fill="#FEC015"/></g><g sketch:type="MSShapeGroup"><path fill="#FFCB3C" d="M24.905 0l24.905 14.39v28.781l-24.905 14.39-24.905-14.39v-28.781z"/><g fill="#262223"><path d="M29.188 25.763l-1.158 1.173c-.83.842-1.371 1.359-2.02 1.359-.626 0-1.128-.459-2.039-1.292l-.599-.567c-.005.307.012.622.057.938.521 2.84 4.799 4.549 5.626 7.066.611 1.817.45 4.695-2.913 6.134-2.966.791-5.124-.684-6.005-2.842-.958-2.561-2.506-9.34-4.293-8.866-1.38.373-.609 2.294-.577 2.991.096 2.103-.129 2.287-.049 4.56.257 6.624 5.521 11.036 11.101 10.701 4.926-.041 10.025-3.827 10.544-9.938.689-6.234-3.694-10.219-7.677-11.417zM23.537 25.25c.432.427.804.786 1.075 1.033.669.612 1.146 1.049 1.398 1.049.258 0 .737-.464 1.334-1.072l.747-.758c1.909-1.933 5.489-5.555 6.239-6.311v-9.19c-.714-.639-4.023-3.374-8.344-3.374-4.333 0-7.57 2.768-8.262 3.409v9.28c.689.716 3.864 4.012 5.812 5.933zm2.565-1.072c-.472 0-.876-.29-1.046-.702-.055-.133-.086-.278-.086-.43 0-.625.507-1.132 1.131-1.132.625 0 1.131.507 1.131 1.132 0 .182-.046.352-.123.505-.186.37-.565.627-1.008.627zm5.098-6.465c.532 0 .962.431.962.963s-.431.963-.962.963c-.532 0-.963-.431-.963-.963s.431-.963.963-.963zm-5.098-7.333c1.144 0 2.07.928 2.07 2.072 0 1.144-.926 2.07-2.07 2.07-1.143 0-2.07-.927-2.07-2.07 0-1.144.926-2.072 2.07-2.072zm-5.155 9.26c-.532 0-.962-.431-.962-.963s.431-.963.962-.963c.532 0 .963.431.963.963s-.431.963-.963.963z"/></g></g></g></svg>