<?xml version="1.0" encoding="UTF-8" standalone="no"?>
<svg width="202px" height="84px" viewBox="0 0 202 84" version="1.1" xmlns="http://www.w3.org/2000/svg" xmlns:xlink="http://www.w3.org/1999/xlink" xmlns:sketch="http://www.bohemiancoding.com/sketch/ns">
    <!-- Generator: Sketch 3.3.3 (12081) - http://www.bohemiancoding.com/sketch -->
    <title>Rectangle 45 + TOWING &amp; RECOVERY + SERGIOS</title>
    <desc>Created with Sketch.</desc>
    <defs></defs>
    <g id="Home-Page" stroke="none" stroke-width="1" fill="none" fill-rule="evenodd" sketch:type="MSPage">
        <g id="Artboard-5" sketch:type="MSArtboardGroup" transform="translate(-637.000000, -170.000000)">
            <g id="Rectangle-45-+-TOWING-&amp;-RECOVERY-+-SERGIOS" sketch:type="MSLayerGroup" transform="translate(637.000000, 170.000000)">
                <rect id="Rectangle-45" fill="#FFCB3C" sketch:type="MSShapeGroup" x="0" y="60" width="202" height="24" rx="8"></rect>
                <path d="M0,34.7183224 L9.41204435,32.9073328 C9.41204435,33.8425903 9.42904877,34.667305 9.46305814,35.3815017 C9.4970675,36.0956983 9.58634074,36.8736508 9.73088054,37.7153826 C9.87542033,38.5571143 10.0709712,39.2457936 10.3175391,39.7814411 C10.564107,40.3170886 10.9126978,40.7677059 11.3633218,41.1333066 C11.8139459,41.4989072 12.3453342,41.6817048 12.9575028,41.6817048 C14.7940084,41.6817048 15.7122475,40.5083994 15.7122475,38.1617533 C15.7122475,34.9478684 13.901276,31.7510361 10.2792788,28.5711606 L7.39699962,26.1224987 C6.4787468,25.357288 5.74755645,24.719622 5.20340663,24.2094816 C4.65925681,23.6993411 4.0173397,23.0106618 3.27763604,22.143423 C2.53793238,21.2761843 1.95978187,20.4387162 1.54316716,19.6309939 C1.12655246,18.8232715 0.769459494,17.849768 0.471877562,16.7104544 C0.17429563,15.5711407 0.0255068952,14.3638264 0.0255068952,13.0884752 C0.0255068952,9.3644499 1.20731456,6.41843296 3.57096533,4.25033603 C5.93461611,2.08223909 9.07193285,0.998206883 12.9830097,0.998206883 C16.2309039,0.998206883 18.9941233,2.1545079 21.2727506,4.46714464 C23.551378,6.77978137 24.6906746,9.56850736 24.6906746,12.8334063 L24.6651677,13.1649959 L24.6651677,13.9302028 L15.0745751,15.2565613 C15.0745751,15.0695098 15.0873284,14.7761835 15.1128354,14.3765734 C15.1383425,13.9769634 15.1510958,13.6496282 15.1510958,13.394558 C15.1510958,12.7823894 15.1085847,12.1957367 15.0235613,11.6345822 C14.9385379,11.0734277 14.7982514,10.5122816 14.6026975,9.95112711 C14.4071437,9.38997261 14.1053151,8.94360641 13.6972027,8.61201511 C13.2890904,8.28042382 12.795962,8.11463066 12.2178028,8.11463066 C11.1975219,8.11463066 10.4323227,8.51423469 9.92218225,9.31345473 C9.41204179,10.1126748 9.15697539,11.0564205 9.15697539,12.1447201 C9.15697539,13.0969823 9.30576413,13.9897147 9.60334606,14.8229441 C9.90092799,15.6561735 10.3515453,16.434126 10.9552115,17.156825 C11.5588777,17.879524 12.1157727,18.47893 12.6259131,18.9550611 C13.1360536,19.4311922 13.8162307,20.0135938 14.6664648,20.7022835 C15.5166989,21.3909731 16.120356,21.8968548 16.4774543,22.2199437 C17.7868148,23.3762621 18.8921026,24.4602943 19.7933507,25.4720729 C20.6945988,26.4838514 21.5448202,27.6273991 22.3440402,28.9027503 C23.1432603,30.1781014 23.7426663,31.55546 24.1422763,33.0348673 C24.5418864,34.5142746 24.7416884,36.1126908 24.7416884,37.8301636 C24.7416884,41.0440485 23.5938896,43.6754835 21.2982575,45.7245477 C19.0026255,47.7736119 16.2138995,48.7981286 12.9319959,48.7981286 C10.8064107,48.7981286 8.91891928,48.4070268 7.26946514,47.6248114 C5.62001101,46.842596 4.28941461,45.7798194 3.27763604,44.4364495 C2.26585747,43.0930796 1.48790494,41.6051923 0.943755124,39.9727428 C0.399605305,38.3402934 0.0850234093,36.5888374 0,34.7183224 L0,34.7183224 Z M32.0359292,48.2970313 L32.0359292,0.921196782 L51.8021801,0.921196782 L51.8021801,7.5011738 L41.6163757,7.5011738 L41.6163757,20.3979287 L48.8280305,20.3979287 L48.8280305,27.1358252 L41.6163757,27.1358252 L41.6163757,41.7170543 L51.8021801,41.7170543 L51.8021801,48.2970313 L32.0359292,48.2970313 Z M67.0801264,20.6348079 L69.8173968,20.6348079 C70.5543579,20.6348079 71.1860294,20.3891579 71.7124302,19.8978505 C72.238831,19.4065431 72.6204659,18.7836448 72.8573462,18.029137 C73.0942266,17.2746292 73.2609177,16.5815452 73.3574245,15.9498643 C73.4539313,15.3181833 73.502184,14.7216047 73.502184,14.1601105 C73.502184,13.5986164 73.4627045,13.0195842 73.3837444,12.4229966 C73.3047843,11.826409 73.1644128,11.1640313 72.9626258,10.4358435 C72.7608389,9.70765578 72.4274567,9.11107717 71.9624693,8.6460898 C71.497482,8.18110243 70.9316096,7.94861223 70.2648353,7.94861223 L67.0801264,7.94861223 L67.0801264,20.6348079 Z M58.4978867,48.2970313 L58.4978867,0.921196782 L68.9205703,0.921196782 C71.2893739,0.921196782 73.3730125,1.14491376 75.1715485,1.59235444 C76.9700845,2.03979511 78.5448766,2.74165231 79.895972,3.69794708 C81.2470674,4.65424186 82.2735335,5.94390445 82.9754012,7.56697357 C83.677269,9.19004268 84.0281976,11.1333098 84.0281976,13.3968332 C84.0281976,14.379448 83.9931047,15.2567695 83.9229179,16.028824 C83.8527312,16.8008785 83.6904267,17.6825866 83.4359996,18.6739748 C83.1815726,19.6653629 82.8350306,20.5426844 82.3963633,21.3059656 C81.9576959,22.0692467 81.3260245,22.8193566 80.5013299,23.5563177 C79.6766353,24.2932788 78.7028084,24.9074039 77.5798201,25.3987113 C80.4223844,34.4177115 82.896431,42.0504085 85.0020342,48.2970313 L75.0794288,48.2970313 L69.6575278,26.4778275 L68.0783333,26.4778275 L68.0783333,48.2970313 L58.4978867,48.2970313 Z M90.6975842,33.4789231 L90.6975842,16.7921013 C90.6975842,5.59731114 95.3561614,0 104.673455,0 C106.638685,0 108.388941,0.258809841 109.924277,0.776437288 C111.459613,1.29406473 112.744889,2.00908175 113.780144,2.92150979 C114.815399,3.83393784 115.6664,4.95690935 116.333175,6.29045803 C116.999949,7.6240067 117.482476,9.07158717 117.78077,10.6332429 C118.079063,12.1948985 118.228208,13.9144487 118.228208,15.7919448 L118.228208,18.5818551 L109.06888,18.5818551 L109.06888,15.2655467 C109.06888,14.4408521 109.046947,13.7170619 109.00308,13.0941543 C108.959214,12.4712467 108.849548,11.7781627 108.674081,11.0148815 C108.498615,10.2516004 108.261738,9.6243155 107.963444,9.1330081 C107.66515,8.64170069 107.235263,8.22935959 106.673768,7.89597242 C106.112274,7.56258525 105.44551,7.39589416 104.673455,7.39589416 C101.743158,7.39589416 100.278031,9.72956934 100.278031,14.3969897 L100.278031,34.8475583 C100.278031,39.4974319 101.743158,41.8223339 104.673455,41.8223339 C107.586206,41.8223339 109.04256,39.4096998 109.04256,34.5843592 L109.04256,30.7942924 L103.620659,30.7942924 L103.620659,23.9247964 L118.623007,23.9247964 L118.623007,48.2970313 L112.04303,48.2970313 L110.832314,44.9807229 C110.025166,46.2440848 108.875875,47.2661643 107.384406,48.0469922 C105.892937,48.82782 104.357624,49.2182281 102.778422,49.2182281 C101.076393,49.2182281 99.5279204,48.9067789 98.1329583,48.2838713 C96.7379962,47.6609637 95.588705,46.8362815 94.6850503,45.8098 C93.7813956,44.7833184 93.0225125,43.5770014 92.4083783,42.1908126 C91.794244,40.8046239 91.3555833,39.3877496 91.0923829,37.9401475 C90.8291825,36.4925453 90.6975842,35.0054854 90.6975842,33.4789231 L90.6975842,33.4789231 Z M125.774067,48.3740414 L125.774067,0.998206883 L135.354514,0.998206883 L135.354514,48.3740414 L125.774067,48.3740414 Z M143.046361,32.7156457 L143.046361,16.7921013 C143.046361,5.59731114 147.661072,0 156.890632,0 C166.13774,0 170.761224,5.59731114 170.761224,16.7921013 L170.761224,32.4787665 C170.761224,34.3738094 170.620852,36.1240658 170.340105,37.7295882 C170.059358,39.3351106 169.581218,40.8572634 168.90567,42.2960923 C168.230123,43.7349211 167.370348,44.9587846 166.326319,45.9677194 C165.282291,46.9766543 163.961922,47.7706302 162.365173,48.3496711 C160.768424,48.928712 158.943595,49.2182281 156.890632,49.2182281 C154.855216,49.2182281 153.03916,48.9330986 151.442411,48.3628311 C149.845662,47.7925635 148.52968,47.0205206 147.494425,46.0466792 C146.45917,45.0728377 145.603782,43.8796804 144.928234,42.4671717 C144.252686,41.0546629 143.77016,39.5500565 143.480639,37.9533074 C143.191119,36.3565583 143.046361,34.6106886 143.046361,32.7156457 L143.046361,32.7156457 Z M162.178984,34.8738782 L162.178984,14.3969897 C162.178984,9.72956934 160.74895,7.39589416 157.888839,7.39589416 C157.029051,7.39589416 156.300874,7.61083793 155.704287,8.04073191 C155.107699,8.47062589 154.669038,9.0584313 154.388291,9.80416575 C154.107544,10.5499002 153.910147,11.2868503 153.796093,12.015038 C153.68204,12.7432258 153.625014,13.5372017 153.625014,14.3969897 L153.625014,34.8738782 C153.625014,39.5237519 155.046275,41.8486538 157.888839,41.8486538 C160.74895,41.8486538 162.178984,39.5237519 162.178984,34.8738782 L162.178984,34.8738782 Z M176.682618,35.502927 L186.313664,33.6497991 C186.313664,34.6068183 186.331064,35.4507226 186.365864,36.1815372 C186.400665,36.9123519 186.492015,37.7084059 186.639918,38.5697232 C186.787821,39.4310405 186.987922,40.1357441 187.240228,40.6838551 C187.492533,41.2319661 187.849234,41.6930684 188.310344,42.0671759 C188.771453,42.4412835 189.315206,42.6283344 189.941618,42.6283344 C191.820856,42.6283344 192.760461,41.4277283 192.760461,39.0264801 C192.760461,35.7378141 190.907351,32.4665975 187.201077,29.2127322 L184.251732,26.7070944 C183.312114,25.9240787 182.56391,25.2715754 182.007099,24.7495649 C181.450287,24.2275544 180.793434,23.5228509 180.036519,22.635433 C179.279604,21.7480152 178.688001,20.8910609 178.261692,20.0645443 C177.835384,19.2380277 177.469982,18.2418726 177.165476,17.0760492 C176.86097,15.9102258 176.708719,14.6748196 176.708719,13.3697934 C176.708719,9.55911688 177.918025,6.54455158 180.336673,4.32600705 C182.755322,2.10746251 185.965638,0.998206883 189.967719,0.998206883 C193.291185,0.998206883 196.1187,2.18141289 198.450346,4.54786039 C200.781993,6.91430789 201.947799,9.76792237 201.947799,13.1087894 L201.921699,13.4480945 L201.921699,14.2311064 L192.107951,15.5883268 C192.107951,15.396923 192.121001,15.0967714 192.147101,14.6878632 C192.173202,14.278955 192.186252,13.9440033 192.186252,13.6829981 C192.186252,13.0565855 192.142752,12.4562825 192.05575,11.8820709 C191.968748,11.3078594 191.825198,10.7336565 191.625094,10.159445 C191.42499,9.58523345 191.116138,9.12848113 190.69853,8.78917432 C190.280921,8.44986751 189.776319,8.28021665 189.184707,8.28021665 C188.140686,8.28021665 187.357682,8.68911873 186.835671,9.50693514 C186.313661,10.3247516 186.05266,11.2904565 186.05266,12.4040788 C186.05266,13.3784984 186.20491,14.292003 186.509416,15.1446201 C186.813923,15.9972372 187.275025,16.7932913 187.892737,17.5328061 C188.51045,18.272321 189.080303,18.8856741 189.602313,19.3728839 C190.124324,19.8600936 190.820327,20.4560467 191.690345,21.1607608 C192.560362,21.865475 193.178065,22.3831276 193.543473,22.7137342 C194.883299,23.896958 196.014305,25.0062136 196.936524,26.0415344 C197.858742,27.0768552 198.728747,28.2470111 199.546563,29.5520373 C200.364379,30.8570635 200.977733,32.2664706 201.386641,33.780301 C201.795549,35.2941314 202,36.9297397 202,38.687175 C202,41.975841 200.825494,44.6685047 198.476447,46.7652468 C196.1274,48.8619889 193.273785,49.9103442 189.915518,49.9103442 C187.740474,49.9103442 185.809064,49.5101421 184.12123,48.7097261 C182.433397,47.90931 181.07184,46.8218045 180.036519,45.4471769 C179.001198,44.0725493 178.205144,42.5500416 177.648333,40.879608 C177.091522,39.2091745 176.76962,37.4169654 176.682618,35.502927 L176.682618,35.502927 Z" id="SERGIOS" fill="#FFFFFF" sketch:type="MSShapeGroup"></path>
                <path d="M21.1425781,76.7011719 L19.3261719,76.7011719 L19.3261719,69.6464844 L17,69.6464844 L17,68.1347656 L23.46875,68.1347656 L23.46875,69.6464844 L21.1425781,69.6464844 L21.1425781,76.7011719 Z M34.9722657,72.40625 C34.9722657,73.8242258 34.6207067,74.9140587 33.9175782,75.6757812 C33.2144497,76.4375038 32.2066473,76.8183594 30.8941407,76.8183594 C29.5816342,76.8183594 28.5738317,76.4375038 27.8707032,75.6757812 C27.1675747,74.9140587 26.8160157,73.8203196 26.8160157,72.3945312 C26.8160157,70.9687429 27.1685513,69.8798866 27.8736329,69.1279297 C28.5787146,68.3759728 29.5894466,68 30.9058595,68 C32.2222723,68 33.2290982,68.3789025 33.9263673,69.1367188 C34.6236364,69.894535 34.9722657,70.9843679 34.9722657,72.40625 L34.9722657,72.40625 Z M28.7203126,72.40625 C28.7203126,73.363286 28.9019514,74.083982 29.2652345,74.5683594 C29.6285175,75.0527368 30.1714809,75.2949219 30.8941407,75.2949219 C32.3433667,75.2949219 33.0679688,74.3320409 33.0679688,72.40625 C33.0679688,70.4765529 32.3472729,69.5117188 30.9058595,69.5117188 C30.1831996,69.5117188 29.6382832,69.7548804 29.2710938,70.2412109 C28.9039045,70.7275415 28.7203126,71.449214 28.7203126,72.40625 L28.7203126,72.40625 Z M47.6242189,76.7011719 L45.5558596,76.7011719 L44.3957033,72.2011719 C44.3527344,72.0410148 44.2794929,71.7099634 44.1759768,71.2080078 C44.0724606,70.7060522 44.0128909,70.3691415 43.9972658,70.1972656 C43.9738282,70.4082042 43.915235,70.747068 43.8214846,71.2138672 C43.7277341,71.6806664 43.6554692,72.0136709 43.6046877,72.2128906 L42.4503908,76.7011719 L40.3878908,76.7011719 L38.2023439,68.1347656 L39.9894533,68.1347656 L41.0851564,72.8105469 C41.2765636,73.6738324 41.4152341,74.4218718 41.5011721,75.0546875 C41.5246097,74.8320301 41.5783201,74.487307 41.6623049,74.0205078 C41.7462897,73.5537086 41.8253904,73.1914075 41.8996096,72.9335938 L43.1476564,68.1347656 L44.8644533,68.1347656 L46.1125002,72.9335938 C46.167188,73.1484386 46.2355467,73.4765603 46.3175783,73.9179688 C46.39961,74.3593772 46.4621094,74.7382797 46.5050783,75.0546875 C46.544141,74.7499985 46.6066404,74.3701195 46.6925783,73.9150391 C46.7785162,73.4599587 46.8566405,73.0917983 46.9269533,72.8105469 L48.0167971,68.1347656 L49.8039064,68.1347656 L47.6242189,76.7011719 Z M53.5320315,76.7011719 L53.5320315,68.1347656 L55.3484378,68.1347656 L55.3484378,76.7011719 L53.5320315,76.7011719 Z M67.7542973,76.7011719 L65.4457035,76.7011719 L61.719141,70.2207031 L61.6664066,70.2207031 C61.7406258,71.3652401 61.7777348,72.1816382 61.7777348,72.6699219 L61.7777348,76.7011719 L60.1546879,76.7011719 L60.1546879,68.1347656 L62.4457035,68.1347656 L66.1664066,74.5507812 L66.2074223,74.5507812 C66.1488282,73.4374944 66.1195316,72.6503929 66.1195316,72.1894531 L66.1195316,68.1347656 L67.7542973,68.1347656 L67.7542973,76.7011719 Z M75.8125005,71.890625 L79.210938,71.890625 L79.210938,76.3320312 C78.660154,76.5117196 78.1416045,76.637695 77.6552739,76.7099609 C77.1689434,76.7822269 76.671878,76.8183594 76.164063,76.8183594 C74.8710878,76.8183594 73.8837929,76.4384804 73.2021489,75.6787109 C72.5205049,74.9189415 72.179688,73.8281321 72.179688,72.40625 C72.179688,71.0234306 72.5751918,69.9453164 73.3662114,69.171875 C74.157231,68.3984336 75.2538997,68.0117188 76.6562505,68.0117188 C77.5351611,68.0117188 78.3828089,68.1874982 79.1992192,68.5390625 L78.5957036,69.9921875 C77.9707005,69.6796859 77.3203164,69.5234375 76.6445317,69.5234375 C75.8593716,69.5234375 75.2304716,69.7871067 74.757813,70.3144531 C74.2851544,70.8417995 74.0488286,71.5507768 74.0488286,72.4414062 C74.0488286,73.3710984 74.2392564,74.0810522 74.6201177,74.5712891 C75.0009789,75.0615259 75.5546843,75.3066406 76.2812505,75.3066406 C76.6601586,75.3066406 77.0449204,75.2675785 77.4355474,75.1894531 L77.4355474,73.4023438 L75.8125005,73.4023438 L75.8125005,71.890625 Z M97.5890632,76.7011719 L95.3800788,76.7011719 L94.7062507,76.0390625 C93.9601532,76.5585963 93.1164116,76.8183594 92.1750007,76.8183594 C91.2218709,76.8183594 90.4660191,76.5996116 89.9074225,76.1621094 C89.348826,75.7246072 89.0695319,75.1328162 89.0695319,74.3867188 C89.0695319,73.8515598 89.1876948,73.3955097 89.4240241,73.0185547 C89.6603534,72.6415997 90.0656228,72.2890641 90.6398444,71.9609375 C90.3468742,71.6249983 90.1339857,71.3037125 90.0011725,70.9970703 C89.8683594,70.6904282 89.8019538,70.3554706 89.8019538,69.9921875 C89.8019538,69.3984345 90.0294906,68.9199237 90.484571,68.5566406 C90.9396514,68.1933576 91.5480437,68.0117188 92.3097663,68.0117188 C93.0363324,68.0117188 93.6173813,68.1806624 94.0529304,68.5185547 C94.4884794,68.856447 94.7062507,69.3085909 94.7062507,69.875 C94.7062507,70.3398461 94.5714864,70.7646465 94.3019538,71.1494141 C94.0324212,71.5341816 93.5968787,71.9003889 92.9953132,72.2480469 L94.6593757,73.8710938 C94.9367208,73.4140602 95.1769528,72.8261755 95.3800788,72.1074219 L97.24336,72.1074219 C97.1027343,72.6347683 96.9093769,73.1494116 96.6632819,73.6513672 C96.4171869,74.1533228 96.1378929,74.5976543 95.8253913,74.984375 L97.5890632,76.7011719 Z M90.9503913,74.2167969 C90.9503913,74.5527361 91.0763666,74.8203115 91.328321,75.0195312 C91.5802754,75.218751 91.9035143,75.3183594 92.2980475,75.3183594 C92.7902375,75.3183594 93.2335924,75.1992199 93.6281257,74.9609375 L91.6828132,73.0273438 C91.4562495,73.1992196 91.2775404,73.3789053 91.1466804,73.5664062 C91.0158203,73.7539072 90.9503913,73.9707019 90.9503913,74.2167969 L90.9503913,74.2167969 Z M93.0539069,70.0625 C93.0539069,69.8554677 92.9835951,69.6923834 92.8429694,69.5732422 C92.7023437,69.454101 92.5207049,69.3945312 92.2980475,69.3945312 C92.0363275,69.3945312 91.8302749,69.4570306 91.6798835,69.5820312 C91.5294921,69.7070319 91.4542975,69.8847645 91.4542975,70.1152344 C91.4542975,70.4589861 91.6398426,70.8378886 92.0109382,71.2519531 C92.3468773,71.0644522 92.6046873,70.8798837 92.7843757,70.6982422 C92.9640641,70.5166007 93.0539069,70.3046887 93.0539069,70.0625 L93.0539069,70.0625 Z M108.900782,71.9375 L109.48672,71.9375 C110.060941,71.9375 110.484765,71.8417978 110.758204,71.6503906 C111.031643,71.4589834 111.16836,71.1582052 111.16836,70.7480469 C111.16836,70.3417948 111.028713,70.0527352 110.749415,69.8808594 C110.470117,69.7089835 110.037504,69.6230469 109.451563,69.6230469 L108.900782,69.6230469 L108.900782,71.9375 Z M108.900782,73.4140625 L108.900782,76.7011719 L107.084376,76.7011719 L107.084376,68.1347656 L109.58047,68.1347656 C110.744538,68.1347656 111.605857,68.3466776 112.164454,68.7705078 C112.723051,69.1943381 113.002345,69.8378863 113.002345,70.7011719 C113.002345,71.2050806 112.863674,71.6533183 112.586329,72.0458984 C112.308984,72.4384785 111.91641,72.7460926 111.408595,72.96875 C112.697664,74.8945409 113.537499,76.1386691 113.928126,76.7011719 L111.912501,76.7011719 L109.867579,73.4140625 L108.900782,73.4140625 Z M122.589845,76.7011719 L117.656251,76.7011719 L117.656251,68.1347656 L122.589845,68.1347656 L122.589845,69.6230469 L119.472657,69.6230469 L119.472657,71.5039062 L122.373048,71.5039062 L122.373048,72.9921875 L119.472657,72.9921875 L119.472657,75.2011719 L122.589845,75.2011719 L122.589845,76.7011719 Z M130.665626,69.5234375 C129.982029,69.5234375 129.452737,69.7802709 129.077735,70.2939453 C128.702734,70.8076198 128.515235,71.5234329 128.515235,72.4414062 C128.515235,74.3515721 129.232025,75.3066406 130.665626,75.3066406 C131.267192,75.3066406 131.9957,75.1562515 132.851173,74.8554688 L132.851173,76.3789062 C132.148044,76.6718765 131.362896,76.8183594 130.495704,76.8183594 C129.249604,76.8183594 128.296489,76.4404335 127.636329,75.6845703 C126.97617,74.9287072 126.646095,73.8437571 126.646095,72.4296875 C126.646095,71.539058 126.808203,70.7587924 127.132423,70.0888672 C127.456643,69.418942 127.922459,68.9052752 128.529884,68.5478516 C129.137309,68.1904279 129.849216,68.0117188 130.665626,68.0117188 C131.497661,68.0117188 132.333591,68.2128886 133.173439,68.6152344 L132.587501,70.0917969 C132.267187,69.9394524 131.944925,69.8066412 131.620704,69.6933594 C131.296484,69.5800776 130.978128,69.5234375 130.665626,69.5234375 L130.665626,69.5234375 Z M144.858595,72.40625 C144.858595,73.8242258 144.507036,74.9140587 143.803907,75.6757812 C143.100779,76.4375038 142.092976,76.8183594 140.78047,76.8183594 C139.467963,76.8183594 138.460161,76.4375038 137.757032,75.6757812 C137.053904,74.9140587 136.702345,73.8203196 136.702345,72.3945312 C136.702345,70.9687429 137.05488,69.8798866 137.759962,69.1279297 C138.465044,68.3759728 139.475776,68 140.792189,68 C142.108601,68 143.115427,68.3789025 143.812696,69.1367188 C144.509966,69.894535 144.858595,70.9843679 144.858595,72.40625 L144.858595,72.40625 Z M138.606642,72.40625 C138.606642,73.363286 138.788281,74.083982 139.151564,74.5683594 C139.514847,75.0527368 140.05781,75.2949219 140.78047,75.2949219 C142.229696,75.2949219 142.954298,74.3320409 142.954298,72.40625 C142.954298,70.4765529 142.233602,69.5117188 140.792189,69.5117188 C140.069529,69.5117188 139.524612,69.7548804 139.157423,70.2412109 C138.790234,70.7275415 138.606642,71.449214 138.606642,72.40625 L138.606642,72.40625 Z M154.053517,68.1347656 L155.887501,68.1347656 L152.975392,76.7011719 L150.994923,76.7011719 L148.088673,68.1347656 L149.922657,68.1347656 L151.533986,73.2324219 C151.62383,73.5332046 151.716602,73.8837871 151.812306,74.2841797 C151.90801,74.6845723 151.967579,74.9628898 151.991017,75.1191406 C152.033986,74.7597638 152.180469,74.1308639 152.43047,73.2324219 L154.053517,68.1347656 Z M164.54922,76.7011719 L159.615626,76.7011719 L159.615626,68.1347656 L164.54922,68.1347656 L164.54922,69.6230469 L161.432033,69.6230469 L161.432033,71.5039062 L164.332423,71.5039062 L164.332423,72.9921875 L161.432033,72.9921875 L161.432033,75.2011719 L164.54922,75.2011719 L164.54922,76.7011719 Z M170.802736,71.9375 L171.388673,71.9375 C171.962895,71.9375 172.386719,71.8417978 172.660158,71.6503906 C172.933597,71.4589834 173.070314,71.1582052 173.070314,70.7480469 C173.070314,70.3417948 172.930667,70.0527352 172.651369,69.8808594 C172.37207,69.7089835 171.939457,69.6230469 171.353517,69.6230469 L170.802736,69.6230469 L170.802736,71.9375 Z M170.802736,73.4140625 L170.802736,76.7011719 L168.98633,76.7011719 L168.98633,68.1347656 L171.482423,68.1347656 C172.646492,68.1347656 173.507811,68.3466776 174.066408,68.7705078 C174.625004,69.1943381 174.904298,69.8378863 174.904298,70.7011719 C174.904298,71.2050806 174.765628,71.6533183 174.488283,72.0458984 C174.210938,72.4384785 173.818363,72.7460926 173.310548,72.96875 C174.599617,74.8945409 175.439453,76.1386691 175.83008,76.7011719 L173.814455,76.7011719 L171.769533,73.4140625 L170.802736,73.4140625 Z M182.22422,71.6621094 L184.01133,68.1347656 L185.968361,68.1347656 L183.126564,73.3671875 L183.126564,76.7011719 L181.321877,76.7011719 L181.321877,73.4257812 L178.48008,68.1347656 L180.44883,68.1347656 L182.22422,71.6621094 Z" id="TOWING-&amp;-RECOVERY" fill="#292627" sketch:type="MSShapeGroup"></path>
            </g>
        </g>
    </g>
</svg>