<svg width="268" height="146" viewBox="0 0 268 146" xmlns="http://www.w3.org/2000/svg" xmlns:sketch="http://www.bohemiancoding.com/sketch/ns"><title>noun_49797_cc-2</title><desc>Created with Sketch.</desc><g sketch:type="MSLayerGroup" fill="none"><path d="M222.432 100.963c-12.241 0-22.165 9.908-22.165 22.152 0 12.236 9.924 22.159 22.165 22.159s22.165-9.923 22.165-22.159c0-12.244-9.924-22.152-22.165-22.152zm0 33.719c-6.388 0-11.564-5.176-11.564-11.556 0-6.399 5.176-11.563 11.564-11.563s11.556 5.176 11.556 11.563c.004 6.372-5.168 11.556-11.556 11.556zm-129.256-33.727c-12.244 0-22.168 9.912-22.168 22.156 0 12.232 9.924 22.16 22.168 22.16 12.237 0 22.161-9.927 22.161-22.16-.004-12.244-9.924-22.156-22.161-22.156zm0 33.727c-6.392 0-11.564-5.176-11.564-11.559 0-6.395 5.176-11.563 11.564-11.563 6.384 0 11.556 5.176 11.556 11.563 0 6.372-5.172 11.559-11.556 11.559zm-57.223-33.727c-12.244 0-22.168 9.912-22.168 22.156 0 12.232 9.924 22.16 22.168 22.16 12.237 0 22.161-9.927 22.161-22.16 0-12.244-9.924-22.156-22.161-22.156zm0 33.727c-6.392 0-11.564-5.176-11.564-11.559 0-6.395 5.176-11.563 11.564-11.563 6.384 0 11.556 5.176 11.556 11.563 0 6.372-5.172 11.559-11.556 11.559zm-1.667-70.03c-6.671 0-12.08 5.401-12.08 12.079 0 6.663 5.405 12.072 12.08 12.072 6.667 0 12.076-5.409 12.076-12.072 0-6.678-5.409-12.079-12.076-12.079zm0 18.383c-3.483 0-6.304-2.821-6.304-6.3 0-3.482 2.821-6.303 6.304-6.303 3.479 0 6.296 2.821 6.296 6.303 0 3.475-2.817 6.3-6.296 6.3zm-2.339-66.016h76.245s-1.743-4.893-7.703-4.893h-60.698s-7.844.814-7.844 4.893zm99.95 47.633c-6.675 0-12.08 5.401-12.08 12.079 0 6.663 5.405 12.072 12.08 12.072s12.08-5.409 12.08-12.072c0-6.678-5.405-12.079-12.08-12.079zm0 18.383c-3.483 0-6.304-2.821-6.304-6.3 0-3.482 2.821-6.303 6.304-6.303s6.3 2.821 6.3 6.303c0 3.475-2.817 6.3-6.3 6.3zm21.607-40.091l-31.32-6.193c-4.84-8.696-13.754-18.264-13.754-18.264h-76.677l-13.357 17.611c-10.268 13.261-9.683 26.089-9.683 26.089 1.07 11.758 9.454 13.769 12.443 14.109.042-7.236 5.918-13.089 13.158-13.089 7.271 0 13.162 5.894 13.162 13.161h71.218c0-7.267 5.895-13.161 13.162-13.161 7.267 0 13.166 5.894 13.166 13.161h4.855c8.139-.982 7.699-20.875 7.699-20.875.581-12.225-4.071-12.55-4.071-12.55zm-86.051-4.69s-.164 2.19-3.964 2.19h-33.335s-5.447-.627-1.82-6.881l4.289-7.511s1.984-3.127 6.77-3.44h22.941s4.954-.157 5.119 6.258v9.384zm11.235 11.483h-4.27c-.417 0-.753-.336-.753-.753s.34-.753.753-.753h4.27c.417 0 .753.336.753.753s-.336.753-.753.753zm-8.265-9.293v-13.926s0-3.754 5.115-3.91h27.069s1.812-.47 4.454 3.127l10.234 14.705h-46.871v.004zm81.727 15.913c-1.051 0-1.904-1.999-1.904-4.465 0-2.466.852-4.461 1.904-4.461 1.051 0 1.904 1.999 1.904 4.461 0 2.466-.849 4.465-1.904 4.465z" fill="#000" sketch:type="MSShapeGroup"/><g sketch:type="MSShapeGroup"><path d="M227.861 11.335h-30.104v49.055h54.953v-12.886c0-15.799-24.848-36.169-24.848-36.169zM173.864 11.335h13.38v49.055h-13.38z"/><path d="M233.595.505h-69.766v90.079h-157.212v22.526h-6.212v7.167h9.836c.745-13.475 11.885-24.193 25.555-24.193s24.806 10.719 25.555 24.193h5.971c.749-13.475 11.889-24.193 25.555-24.193s24.806 10.719 25.555 24.193h78.635c.745-13.475 11.885-24.193 25.559-24.193 13.663 0 24.806 10.719 25.559 24.193h18.873v-66.54c-.015-21.498-33.465-53.233-33.465-53.233zm-46.351 59.885h-13.38v-49.055h13.38v49.055zm65.465 0h-54.953v-49.055h30.104s24.848 20.371 24.848 36.169v12.886zm-246.092 30.194v-14.212h-6.212v36.738h6.212v-22.526z" fill="#000"/></g></g></svg>