<svg width="86" height="90" viewBox="0 0 86 90" xmlns="http://www.w3.org/2000/svg" xmlns:sketch="http://www.bohemiancoding.com/sketch/ns"><title>noun_170422_cc</title><desc>Created with Sketch.</desc><path d="M42.7 33.9c-8.2.2-16.5.6-24.7 1.3 0-.3.1-.7.2-1.1 1.4-5.8 3.5-11.2 6.6-16.3.2-.3.4-.5.6-.7.2-.2.5-.3.8-.4 1.4-.6 4.7-1.6 12.2-2.2.3-2.2.9-4.3 1.7-6.3-3.4.2-6.8.5-10.2 1-3.6.6-6.8 1.8-9 5-3.2 4.6-5.6 9.6-7.1 15-.3 1.2-.6 2.4-1.1 4-.4-.7-.8-1.2-1-1.7 0 0-2.5-4-6.1-4.1h-1.9c-1.7.1-2.8 1.2-2.9 2.9v3.6c0 1.8 1.2 3 3.1 3h7.7l.2.3c-.2.1-.5.2-.7.4-4.6 4.4-7.1 9.8-7 16.2.1 3.8.4 7.7.8 11.5.3 2.9 1 5.8 2.3 8.5.6 1.2 1.3 2.1 2.6 2.3.6.1.7.5.7 1v4.8c0 2.2 1.3 3.5 3.5 3.5h5.7c2.4 0 3.7-1.3 3.7-3.7v-3.8c8.7.6 17.3 1 25.9 1h.3v-12.8h-13.9c-1.1 0-2-.3-2.5-1.3-.5-1.1-.1-2 .6-2.8 1.3-1.5 3-3.7 5-3.7h10.7v-17.5c-2.7-1.7-5-4.1-6.8-6.9zm-22.9 24.8c-3.8 0-6.8-3.1-6.8-6.8 0-3.8 3.1-6.8 6.8-6.8 3.8 0 6.8 3.1 6.8 6.8 0 3.7-3.1 6.8-6.8 6.8zm62.3-29.6c-1.9 3-4.5 5.3-7.7 6.9-.6.3-.9.7-.9 1.4v43.7c0 4.3-2.8 7.6-6.9 8.2-4.6.7-9-2.8-9.2-7.5v-44.4c0-.7-.2-1-.8-1.3-11.2-5.6-14.3-20.1-6.5-29.8 1.8-2.3 4.1-4 6.7-5.3l.8-.3c-.1.4-.2.7-.2 1v15.5c0 .7.2 1.1.7 1.5 2.3 1.8 4.6 3.6 6.8 5.4.4.3.7.4 1.1 0l7-5.6c.4-.3.6-.7.6-1.2v-15.7l-.1-.8.2-.1 2.2 1.2c9.4 5.8 12.1 17.9 6.2 27.2z" sketch:type="MSShapeGroup"/></svg>