<svg width="100" height="82" viewBox="0 0 100 82" xmlns="http://www.w3.org/2000/svg" xmlns:sketch="http://www.bohemiancoding.com/sketch/ns"><title>noun_158369_cc</title><desc>Created with Sketch.</desc><path d="M50 67.1c7.1 0 12.5-5.4 12.5-12.5s-5.4-12.5-12.5-12.5-12.5 5.4-12.5 12.5c0 7.2 5.4 12.5 12.5 12.5zm-42.9 12.5c-3.6-67.9 89.3-67.9 85.7 0 0 1.8 0 1.8-1.8 1.8h-82.1c-1.8 0-1.8 0-1.8-1.8zm92.9-58.9c-23.2-26.8-76.8-26.8-100 0l8.9 12.5 16.1-8.9c3.6-1.8 3.6-8.9 3.6-8.9 8.9-5.4 33.9-5.4 42.9 0 0 0 0 7.1 3.6 8.9l16.1 8.9 8.8-12.5z" sketch:type="MSShapeGroup" fill="#000"/></svg>