<svg width="90" height="38" viewBox="0 0 90 38" xmlns="http://www.w3.org/2000/svg" xmlns:sketch="http://www.bohemiancoding.com/sketch/ns"><title>phone-menu</title><desc>Created with Sketch.</desc><g sketch:type="MSShapeGroup" fill="#000"><path d="M89.02 36.612c.653-.592.98-1.409.98-2.449v-1.162h-.001v-5.625h-25.874v6.496c0 1.112.296 1.996.889 2.649s1.41.979 2.449.979h18.907999999999998c1.112.001 1.995-.295 2.649-.888zM24.895 36.612c.653-.593.98-1.409.98-2.449v-1.162h-.001v-5.625h-25.874v6.496c0 1.112.296 1.996.889 2.649s1.409.979 2.449.979h18.907c1.113.001 1.996-.295 2.65-.888zM45 19.501h14.589c1.391 0 2.494.371 3.312 1.111.816.741 1.225 1.763 1.225 3.063v1.451h25.874s0-2.287-2.15-6.188c-2.581-4.683-6.23-8.294-10.795-10.927-8.688-5.091-19.263-7.635-31.726-7.635l-.329.002-.329-.002c-12.463 0-23.038 2.544-31.727 7.635-4.564 2.633-8.214 6.244-10.794 10.927-2.15 3.901-2.15 6.188-2.15 6.188h25.875v-1.452c0-1.3.407-2.321 1.225-3.063.816-.74 1.921-1.111 3.312-1.111h14.588000000000001v.001z"/></g></svg>