<svg width="35" height="61" viewBox="0 0 35 61" xmlns="http://www.w3.org/2000/svg" xmlns:sketch="http://www.bohemiancoding.com/sketch/ns"><title>Rectangle 2 + Shape</title><desc>Created with Sketch.</desc><g sketch:type="MSLayerGroup" fill="none"><path fill="#EBBA35" sketch:type="MSShapeGroup" d="M3 8h29v45h-29z"/><path d="M28 0h-21c-3.865 0-7 3.138-7 7.008v46.984c0 3.87 3.135 7.008 7 7.008h21c3.865 0 7-3.138 7-7.008v-46.984c0-3.87-3.135-7.008-7-7.008zm-16.8 4.145h12.6c.29 0 .525.235.525.526 0 .29-.235.526-.525.526h-12.6c-.29 0-.525-.235-.525-.526 0-.29.235-.526.525-.526zm6.767 55.19c-1.385 0-2.508-1.125-2.508-2.512s1.123-2.512 2.508-2.512 2.509 1.125 2.509 2.512-1.123 2.512-2.509 2.512zm13.533-7.509h-28v-42.652h28v42.652z" fill="#000" sketch:type="MSShapeGroup"/></g></svg>