<svg width="108" height="69" viewBox="0 0 108 69" xmlns="http://www.w3.org/2000/svg" xmlns:sketch="http://www.bohemiancoding.com/sketch/ns"><title>noun_50002_cc</title><desc>Created with Sketch.</desc><path d="M85.897 49.491c-5.201 0-9.419 4.249-9.419 9.497 0 5.242 4.218 9.49 9.419 9.49 5.201 0 9.412-4.248 9.412-9.49 0-5.247-4.211-9.497-9.412-9.497zm0 13.577c-2.237 0-4.052-1.825-4.052-4.078 0-2.256 1.815-4.084 4.052-4.084 2.234 0 4.046 1.828 4.046 4.084 0 2.251-1.812 4.078-4.046 4.078zm8.817-24.136h-30.117c-.021-7.199-.044-14.675-.038-19.211 0-2.74-3.118-2.941-3.118-2.941h-17.809c-4.765 0-7.446 3.038-7.446 3.038l-10.876 12.562s-17.597 3.118-20.92 5.552c-1.711 2.284-2.014 10.717-2.014 10.717h7.551c2.335 0 2.91-.04 3.359-.081 1.776-1.05 3.838-1.663 6.047-1.663 3.802 0 7.182 1.79 9.375 4.574 1.56 1.982 2.513 4.469 2.585 7.182h42.636c.174-6.525 5.458-11.756 11.967-11.756s11.786 5.231 11.96 11.756h5.495s4.011-.167 4.011-5.71v-7.555l-12.648-6.463zm-87.077 8.295h-3.04c-.088-.861.798-6.89 1.073-7.393.273-.502 3.416-.114 3.416-.114l-1.449 7.507zm50.095-16.568c0 1.076-.863 1.948-1.932 1.948h-19.623c-3.209 0-3.512-1.121-2.305-3.048l5.334-7.422c1.309-1.502 3.563-1.951 4.628-1.951h11.966c1.068 0 1.932.875 1.932 1.951v8.522zm-56.718 20.821c-1.006 3.906 1.365 6.758 3.045 7.182h3.307c.073-2.713 1.026-5.2 2.589-7.182h-8.941zm18.321-1.989c-5.202 0-9.418 4.249-9.418 9.497 0 5.242 4.216 9.49 9.418 9.49 5.201 0 9.411-4.248 9.411-9.49 0-5.247-4.21-9.497-9.411-9.497zm0 14.017c-2.479 0-4.49-2.025-4.49-4.52 0-2.499 2.011-4.524 4.49-4.524 2.476 0 4.483 2.025 4.483 4.524 0 2.495-2.007 4.52-4.483 4.52zm38.487-51.061c0-.851-.483-1.54-1.08-1.54h-6.042c-.595 0-1.078.69-1.078 1.54v2.29h8.2v-2.29zm48.903 18.112c-.708-.219-1.458.181-1.677.895-.298.972-1.115 1.738-2.179 1.907h.001c-.144.023-.285.033-.427.033-1.31 0-2.473-.966-2.679-2.317-.024-.147-.033-.289-.033-.43 0-1.321.958-2.492 2.296-2.702.355-.056.667-.247.878-.539.209-.292.295-.65.24-1.006l-.246-1.583c.449-.472.688-1.136.581-1.831l-.321-2.052-.123-.795-.037-.235-.01-.064-.004-.02-.004-.016-.011-.068-.004-.013-.066-.258-.007-.014-.023-.057-.013-.028-.031-.076-.072-.152-.073-.123-.089-.133-.034-.05-.03-.046-.003-.006-.024-.024-.061-.064-.055-.067-.048-.04-.066-.067-.13-.094-.129-.093-.066-.046-.014-.009-.045-.02-.113-.054-.11-.054-.181-.06-.119-.033-.006-.001-.013-.003-1.707-10.989.304-.473c1.003-1.689 1.15-4.101-.529-5.191-2.784-1.805-5.417 1.233-5.417 1.233-5.047 6.113-17.083 19.916-22.411 26.008-3.017 1.461-5.072 4.28-5.116 7.531h19.658c-.03-2.254-1.034-4.295-2.651-5.825 3.412-4.878 11.368-16.261 14.837-21.328l1.443 9.295c-.147.09-.284.19-.407.313-.399.402-.627.959-.627 1.529l.001.081.004.084.006.05.007.064.006.041.03.185v.004l.465 2.989c.1.65.485 1.177.998 1.498l.081.517c-1.957.852-3.269 2.79-3.269 4.976 0 .281.023.564.066.851.421 2.686 2.711 4.601 5.329 4.601.278 0 .56-.023.841-.066h.001c2.107-.336 3.739-1.858 4.327-3.783.213-.712-.182-1.469-.89-1.689z" sketch:type="MSShapeGroup" fill="#2A2929"/></svg>